<svg width="100" height="100" viewBox="0 0 100 100" fill="none" xmlns="http://www.w3.org/2000/svg">
<path d="M52.9297 1.95307C50.9766 2.30463 49.375 3.16401 48.0469 4.51167L47.2852 5.29292L46.582 4.51167C45.6641 3.49604 43.5156 2.42182 42.0703 2.22651C39.1797 1.87495 36.3086 3.45698 34.7852 6.23042L34.2188 7.2851L32.2852 7.30463C30.5469 7.32417 30.2539 7.38276 29.043 7.94917C25.7617 9.51167 23.5352 13.2226 23.9258 16.4648L24.0625 17.4804L23.0078 17.8515C20.5078 18.7304 18.75 20.1367 17.5391 22.1874C16.3672 24.1992 16.1524 24.9218 16.0547 27.246C15.9766 29.1406 16.0352 29.5507 16.4453 30.7812L16.9141 32.1874L16.4453 32.7343C15.625 33.7499 14.8633 35.4882 14.6289 36.8749C14.1016 40.0976 15.6055 43.496 18.3399 45.2734C18.9453 45.664 19.4531 45.996 19.4727 45.996C19.4922 46.0156 19.375 46.6992 19.2188 47.5585C18.5352 50.8398 19.8047 54.0624 22.4805 55.8398C23.9453 56.8164 25.2539 57.246 26.9922 57.3242L28.3984 57.3828L28.7109 58.5156C29.082 59.9023 30.0781 61.8164 30.957 62.832L31.6016 63.5742L29.8633 67.4804C25.9766 76.1718 22.5 82.832 19.1211 88.0078C17.4805 90.5078 17.3047 91.0937 17.8711 92.1679C18.0274 92.4804 18.418 92.832 18.75 92.9687C19.9219 93.457 23.3984 92.8125 25.5859 91.6992C26.8555 91.0546 31.25 88.1445 31.9336 87.4804L32.5391 86.914L32.4609 91.8554C32.3828 96.6601 32.3828 96.7968 32.793 97.3046C33.0274 97.5976 33.5352 97.9296 33.9258 98.0273C34.9219 98.3007 35.8984 97.832 37.6367 96.2109C39.5313 94.4531 41.1133 92.3242 42.4414 89.7265C43.8086 87.0312 43.9063 86.7773 46.6797 79.0234C47.9297 75.4882 49.0234 72.6757 49.0625 72.7734C49.1211 72.871 49.7266 74.746 50.3906 76.9531C52.9883 85.4882 54.9805 89.5312 58.2031 92.7929C59.8242 94.4531 60.7813 95.1171 61.5235 95.1171C62.207 95.1171 63.2422 94.4335 63.5156 93.789C63.6524 93.457 63.75 91.6015 63.75 88.6523L63.7695 84.0624L64.9414 84.9609C67.5195 86.9726 69.8633 88.5546 71.1719 89.1796C72.793 89.9414 75.293 90.625 76.4844 90.625C77.6367 90.625 78.4961 89.8828 78.6328 88.7695C78.7305 88.0468 78.5742 87.7148 76.8555 84.8632C73.8477 79.8632 70.4297 72.6757 67.168 64.5117L66.1914 62.0703L66.5625 61.4648C66.7774 61.1132 67.1875 60.2539 67.4805 59.5117L68.0274 58.2031H69.4531C72.9492 58.2031 75.918 56.3281 77.4024 53.164C77.9883 51.9335 78.0274 51.7382 78.0274 49.6093C78.0274 47.5585 77.9883 47.2656 77.4805 46.1913L76.9336 45.0195L77.3828 44.7265C78.3008 44.1601 79.375 42.8515 79.961 41.621C80.5078 40.4687 80.5664 40.1367 80.5664 38.5742C80.5664 37.0312 80.4883 36.6406 79.9219 35.3515C79.5899 34.5312 78.9063 33.4374 78.4375 32.9101L77.5977 31.9335L78.0664 31.2304C79.2188 29.4921 79.7266 26.9335 79.3164 25.0195C78.75 22.3828 76.6016 19.707 74.1992 18.6523L72.8906 18.0859L72.9883 16.6015C73.0469 15.7812 72.9883 14.6484 72.8711 14.082C71.9727 9.8437 67.9883 7.14838 63.6133 7.83198C62.8711 7.94917 62.2656 8.00776 62.2461 7.9687C62.2266 7.94917 61.9531 7.40229 61.6602 6.75776C61.0352 5.4687 59.4531 3.69135 58.3008 3.00776C56.6602 2.05073 54.6094 1.64057 52.9297 1.95307ZM56.6797 4.64838C58.4766 5.52729 59.7461 7.20698 60.1758 9.2187C60.5274 10.9179 60.9375 11.1132 62.5195 10.4296C63.7891 9.88276 65.7031 9.80463 67.0508 10.2734C69.9219 11.2499 71.543 14.7265 70.5274 17.7148C70.293 18.3789 70.1172 19.0429 70.1172 19.1601C70.1172 19.6093 70.7617 20.1171 71.3086 20.1171C72.4024 20.1171 74.0039 20.8984 75.1172 21.9726C76.5821 23.3984 77.2266 24.8632 77.2266 26.6601C77.2266 28.3398 76.7578 29.4921 75.5078 30.8203C74.1992 32.207 74.2578 32.4609 76.1524 33.8476C77.8906 35.0976 78.4571 37.2656 77.6367 39.6484C77.3828 40.4492 76.9531 41.0546 76.0156 42.0312C75.3125 42.7734 74.5899 43.3593 74.4336 43.3593C73.9453 43.3593 73.2422 43.9257 73.2422 44.3163C73.2422 44.5117 73.4766 45.1953 73.7695 45.8203C74.2383 46.8163 74.3164 47.207 74.2969 48.7304C74.2774 53.3789 71.25 55.957 67.1094 54.8437C65.8789 54.5117 65.5078 54.8632 65.3906 56.5234C65.1367 59.6289 62.9688 61.9531 60.0586 62.246C58.6914 62.3828 57.4024 62.0507 55.9961 61.2109C55.2149 60.7226 54.7266 60.5468 54.4141 60.6249C53.9844 60.7226 53.5156 61.4648 53.5156 62.0312C53.5156 62.5585 52.793 63.75 52.0117 64.4921C49.9609 66.4843 46.9141 66.2304 44.9024 63.8867C43.9063 62.7343 43.5742 62.6757 42.2266 63.3593C40.7617 64.1015 39.0625 64.3554 37.5586 64.082C35.8008 63.7695 34.6094 63.1054 33.4375 61.8359C32.0117 60.2539 31.5625 59.0039 31.5625 56.4648C31.543 54.5898 31.5039 54.414 31.1133 54.1601C30.7422 53.9062 30.5078 53.9062 29.6875 54.1015C28.3399 54.414 26.8359 54.1992 25.4102 53.496C23.6719 52.6171 22.6367 51.2304 22.2656 49.1796C22.0508 48.0468 22.2656 46.4453 22.7539 45.4492C23.3789 44.1992 23.1055 43.6328 21.6992 43.2617C18.8672 42.5195 17.207 40.5273 17.1875 37.8906C17.1875 35.5078 18.6719 33.4765 21.0547 32.6171C22.3242 32.1484 22.5977 31.7968 22.3828 30.957C22.2852 30.6054 22.0508 30.4296 21.4844 30.2734C20.0586 29.8828 18.9453 27.9492 18.9453 25.8203C18.9453 23.5156 19.9805 21.8554 22.168 20.664C23.9258 19.707 24.8633 19.4335 25.4102 19.746C25.957 20.039 26.6992 19.707 26.8555 19.1015C26.9336 18.8281 26.7969 18.2812 26.582 17.7734C26.3086 17.1874 26.1719 16.4843 26.1719 15.6054C26.1719 11.7382 30.5078 8.33979 33.6914 9.74604C35.332 10.4687 35.9766 10.2343 36.2109 8.78901C36.4649 7.12885 37.832 5.4101 39.4141 4.74604C41.7578 3.76948 44.8242 5.05854 45.9961 7.53901C46.3477 8.26167 46.6406 8.63276 46.9531 8.71088C47.5586 8.8476 48.1836 8.51557 48.3594 7.9687C48.7695 6.62104 50.293 5.1562 52.0508 4.43354C53.1836 3.94526 55.4688 4.06245 56.6797 4.64838ZM65.7227 66.8359C69.2774 75.5468 73.0469 83.1445 75.8789 87.3632C76.25 87.9101 76.5235 88.3789 76.4844 88.4179C76.3086 88.5937 73.4375 87.832 72.3047 87.3046C70.9961 86.6992 66.7383 83.7109 65.293 82.4023C64.375 81.5624 63.6719 81.4257 62.6953 81.9335C61.6797 82.4609 61.6211 82.7148 61.5235 87.9882L61.4258 92.871L59.9414 91.4062C57.7539 89.2382 56.25 86.7968 54.668 82.7343C53.9063 80.8203 50.1953 69.1015 50.1953 68.6523C50.1953 68.5156 50.5664 68.3203 51.0352 68.1835C52.5586 67.7148 54.3945 66.3476 55 65.1953L55.2735 64.6875L56.2891 65.0781C58.4766 65.8984 61.2305 65.7421 63.2813 64.6484C63.8672 64.3359 64.4141 64.082 64.4727 64.082C64.5313 64.0625 65.0977 65.3125 65.7227 66.8359ZM34.6875 65.8203C36.9336 66.9335 40 67.2851 42.4219 66.7187C43.3789 66.5039 43.5938 66.5039 43.7695 66.7187C44.1211 67.1289 46.6797 68.3593 47.207 68.3593C48.1641 68.3593 48.3203 67.8515 43.8086 80.5664C41.1524 88.0468 39.5117 91.1523 36.7383 94.0039C34.3164 96.5234 34.4922 96.7773 34.6484 90.996C34.7852 85.4492 34.7852 85.3906 33.4766 84.8437C32.5977 84.4726 31.9336 84.6484 30.8594 85.5468C30.3711 85.957 28.7891 87.0507 27.3438 88.0273C24.6484 89.7851 22.7734 90.6054 20.6445 90.9179L19.7266 91.0546L21.0547 89.0429C24.4336 83.9453 28.125 76.875 32.0313 68.0078C32.7149 66.4843 33.3203 65.2343 33.3984 65.2343C33.4766 65.2343 34.043 65.4882 34.6875 65.8203Z" fill="#749958"/>
<path d="M43.75 15.1367C35.7422 16.7383 29.6094 22.832 27.793 30.957C27.3828 32.793 27.3828 37.1289 27.793 38.9648C29.1406 45.0195 32.9883 50.0976 38.2812 52.8125C41.6211 54.5312 44.707 55.1953 48.5938 55.0195C53.5156 54.8047 57.8125 52.9883 61.3867 49.6289C69.8633 41.6406 69.8633 28.3398 61.3867 20.3125C58.5938 17.6758 55.3906 15.9961 51.6602 15.2148C49.5898 14.7851 45.7031 14.7461 43.75 15.1367ZM52.4023 17.6562C57.8516 19.2773 62.1484 23.125 64.2578 28.2812C67.3828 35.9766 64.6289 45.0391 57.7148 49.8047C56.3672 50.7226 53.7891 51.8945 52.0508 52.3633C49.7461 52.9883 45.4688 53.0078 43.1836 52.3828C36.875 50.6641 32.1289 46.0351 30.2539 39.7461C29.668 37.793 29.5312 33.6523 29.9609 31.4648C31.4062 24.375 36.7969 18.9258 43.9453 17.3633C46.3477 16.8359 50.0391 16.9531 52.4023 17.6562Z" fill="#749958"/>
<path d="M46.914 22.3046C46.8163 22.4414 45.9569 24.1015 45.0194 25.9765C44.0819 27.8515 43.3007 29.414 43.2812 29.4335C43.2616 29.4531 41.4452 29.746 39.2382 30.0781C36.8554 30.4296 35.1366 30.7812 34.9804 30.9375C34.8437 31.0937 34.7069 31.4453 34.7265 31.7382C34.7265 32.1484 35.2929 32.8125 37.6171 35.039L40.5273 37.832L39.8827 41.621C39.5312 43.7109 39.2577 45.6054 39.2577 45.8398C39.2577 46.0937 39.4726 46.4257 39.7655 46.621C40.2929 46.9531 40.2929 46.9531 44.0234 45.039L47.7538 43.1054L51.3476 45.0195C54.7851 46.8359 54.9804 46.914 55.4491 46.6601C55.7616 46.4843 55.9765 46.1718 56.0155 45.8203C56.0546 45.5273 55.8007 43.6132 55.4687 41.5625L54.8437 37.8515L57.6952 35.1171C61.953 31.0351 61.914 30.9179 56.1327 30.0781C54.0038 29.746 52.2265 29.4921 52.2069 29.4921C52.1679 29.4921 51.3476 27.8906 50.371 25.9179C49.3944 23.9648 48.4765 22.3046 48.3593 22.2265C48.0077 21.9921 47.1288 22.0507 46.914 22.3046ZM50.9179 31.5234C51.1132 31.582 52.5976 31.8164 54.1991 32.0312C55.8202 32.2656 57.1484 32.4804 57.1874 32.5195C57.2265 32.539 56.2304 33.5156 54.9999 34.6679C53.7499 35.8203 52.6952 36.914 52.6366 37.1093C52.578 37.3046 52.7538 38.8085 53.0273 40.4296C53.3007 42.0703 53.496 43.457 53.4374 43.496C53.3984 43.5351 52.1874 42.9687 50.7421 42.207C49.2968 41.4453 47.9101 40.8203 47.6757 40.8203C47.4413 40.8203 46.0741 41.4453 44.6093 42.207C43.164 42.9687 41.9335 43.5546 41.8944 43.5156C41.8359 43.4765 42.0312 42.207 42.2851 40.7226C42.5585 39.2382 42.7734 37.7734 42.7734 37.5C42.7734 37.1289 42.2265 36.4648 40.5273 34.7656C39.2968 33.5351 38.3202 32.5195 38.3398 32.4804C38.3788 32.4609 39.6288 32.246 41.1327 32.0312C42.6171 31.8164 44.0429 31.6015 44.2968 31.5429C44.6288 31.4648 45.078 30.7617 46.2109 28.4765L47.6952 25.5273L49.121 28.457C50.0194 30.3125 50.703 31.4453 50.9179 31.5234Z" fill="#749958"/>
</svg>
