<svg width="100" height="100" viewBox="0 0 100 100" fill="none" xmlns="http://www.w3.org/2000/svg">
<path d="M57.5195 10.2344C56.582 10.6836 55.6836 11.4844 55.0195 12.4805C54.7656 12.8711 54.5312 12.9492 53.6133 12.9883C50.8984 13.0664 49.2773 15.8398 49.8047 19.5312C49.9219 20.293 50.1953 21.3672 50.4102 21.875L50.8203 22.832L50.4102 23.4961C49.5898 24.8242 49.9805 26.1523 51.6797 27.8125C53.1055 29.2187 55.4102 30.3711 57.6562 30.8008C58.5547 30.9766 59.3945 31.1328 59.5312 31.1719C59.668 31.2109 59.7656 31.543 59.7656 31.9141C59.7656 32.4805 59.6875 32.6367 59.3359 32.6953C59.082 32.7539 57.7734 33.0273 56.4062 33.3008C53.6328 33.8672 49.8047 35.0391 47.4023 36.0547C46.5234 36.4453 45.6836 36.7969 45.5664 36.8555C45.1562 37.0312 45.2734 36.5234 45.8008 35.8984C46.3477 35.2539 46.4062 34.8047 46.0547 34.3359C45.5273 33.6719 44.9805 33.7305 44.082 34.5508C43.6133 35 43.0664 35.3516 42.8906 35.3516C42.4414 35.3516 41.7969 36.0547 41.7969 36.543C41.7969 36.7578 42.0703 37.1875 42.4219 37.5C42.7539 37.8125 43.0078 38.1055 42.9492 38.1641C42.9102 38.2031 42.3828 38.5351 41.7969 38.8867C40.0195 39.9805 34.7656 43.5351 33.1055 44.8047C31.4648 46.0547 29.082 48.2812 28.7695 48.9062C28.5742 49.2578 28.4961 49.2383 26.9336 48.6719C26.0352 48.3398 25.0586 48.0078 24.7656 47.9297C24.3555 47.8516 24.2188 47.6953 24.2188 47.3437C24.2188 46.9336 24.3164 46.875 24.9609 46.875C26.0547 46.875 27.5586 46.0742 28.3789 45.0586C28.9453 44.3945 29.2773 44.1601 29.8438 44.0625C30.8008 43.9258 32.1289 42.793 32.4219 41.875C32.5586 41.4844 32.5977 40.8203 32.5391 40.3516C32.4414 39.707 32.4805 39.4531 32.7148 39.2578C33.4375 38.6523 33.8672 37.4414 33.8867 36.0156C33.8867 34.8242 33.8086 34.5312 33.3398 33.8086C32.6367 32.7539 31.2891 31.8945 29.8633 31.6016C28.7891 31.3867 28.75 31.3476 28.6328 30.6641C28.2422 28.2226 25.1953 26.3476 22.5586 26.9336C20.3906 27.4219 18.5547 29.3945 18.5547 31.2305C18.5547 31.9141 18.5156 31.9531 17.7148 32.168C16.5039 32.5 15.5859 33.1836 15.0781 34.1797C14.1992 35.8789 14.7461 38.1055 16.4258 39.6484L16.9922 40.1562L16.6602 40.9766C16.0938 42.4609 16.875 44.1211 18.6133 45.1172C19.1602 45.4297 20.1562 45.8203 20.8398 46.0156C22.0703 46.3476 22.168 46.4062 21.9531 46.9336C21.875 47.168 21.6211 47.168 20.1367 46.8555C19.1992 46.6601 17.3633 46.3672 16.0938 46.1914C14.8242 46.0156 13.75 45.8398 13.7305 45.8203C13.7109 45.8008 13.9062 45.0586 14.1797 44.1797C14.6484 42.6562 14.668 42.5195 14.375 42.0703C14.0039 41.5234 13.2617 41.4453 12.793 41.9141C12.5586 42.1484 12.5195 42.4414 12.6172 43.0859C12.6758 43.5547 12.6953 43.9453 12.6172 43.9453C12.5586 43.9453 12.1094 43.75 11.6211 43.5156C10.8008 43.1055 10.6836 43.1055 10.1953 43.3789C9.60938 43.7109 9.39453 44.5703 9.78516 45.0391C9.92188 45.2148 10.293 45.4492 10.6055 45.5664C11.0938 45.7617 10.5273 45.8203 7.24609 45.8398C3.76953 45.8398 3.26172 45.8984 2.92969 46.1914C2.46094 46.6211 2.42188 47.3242 2.85156 47.7344C3.08594 47.9883 3.63281 48.0469 5.52734 48.0469C9.64844 48.0469 14.4727 48.6523 19.2383 49.7461C21.543 50.2734 22.3242 50.5664 21.4844 50.5859C19.8828 50.6055 14.9805 52.168 12.0898 53.5937C10.7617 54.2383 10.7031 54.2578 10.8203 53.8476C11.3281 52.1289 11.1328 51.5625 10.0391 51.5625C9.47266 51.5625 9.31641 51.6601 9.04297 52.2461C8.78906 52.793 8.63281 52.8906 8.28125 52.8125C7.55859 52.6367 7.03125 53.0469 7.03125 53.8086C7.03125 54.3164 7.1875 54.5898 7.71484 55.0391L8.41797 55.6055L7.28516 56.3476C4.45312 58.2031 2.14844 60.2539 2.14844 60.8984C2.14844 61.4453 2.8125 62.1094 3.33984 62.1094C3.55469 62.1094 4.19922 61.6797 4.74609 61.1523C6.58203 59.4141 9.41406 57.4609 11.8945 56.1719C15.957 54.1016 19.375 53.0664 24.375 52.4609L26.7969 52.168L28.2812 52.7539C32.7344 54.5312 38.0859 57.7539 41.4453 60.6836L42.168 61.3086L41.3477 61.5234C39.5312 61.9726 36.1133 63.1641 34.0039 64.0625C32.7734 64.6094 31.7383 65.0391 31.7188 65.0391C31.6797 65.0391 31.6797 64.7851 31.6797 64.4531C31.6992 63.7109 31.3281 63.2812 30.6445 63.2812C30.2734 63.2812 29.9805 63.4375 29.7656 63.75C29.5117 64.1601 29.3945 64.1992 29.0039 64.0234C28.3984 63.75 27.5977 63.9648 27.4414 64.4531C27.2461 65.0586 27.5 65.5664 28.2422 66.0351L28.9258 66.4453L26.8164 67.6172C24.4336 68.9453 22.0117 70.4883 20.0977 71.8945C19.375 72.4219 18.75 72.8516 18.6914 72.8516C18.457 72.8516 17.9688 71.2109 17.9688 70.4101C17.9688 69.4922 17.4805 68.75 16.8945 68.75C16.2891 68.75 15.625 69.668 15.625 70.4883V71.25L14.707 70.9766C13.5547 70.625 13.1836 70.625 12.8125 71.0156C12.4023 71.4258 12.4219 72.1289 12.8516 72.5C13.0273 72.6562 13.8477 73.0273 14.6484 73.3203C15.4492 73.5937 16.2305 73.9062 16.3867 74.0039C16.5625 74.1211 15.7227 75.0976 13.1445 77.6562C10.0195 80.7812 7.75391 83.457 6.17188 85.8789C5.58594 86.7578 5.54688 87.6172 6.07422 87.9492C6.71875 88.3594 7.32422 87.9297 8.4375 86.2891C13.0859 79.4726 20.0586 73.418 28.3984 68.9648C36.1914 64.7851 42.4414 62.793 48.3398 62.5586C52.7734 62.4023 56.1914 63.1445 60.7617 65.2734C62.5391 66.1133 66.6016 68.5351 66.6016 68.75C66.6016 68.8086 65.8398 69.0234 64.9023 69.2187C63.9453 69.4141 62.3242 69.8437 61.2695 70.1953L59.3359 70.8203L59.1797 70.4101C58.8867 69.668 57.7734 69.4726 57.3828 70.0976C57.168 70.4492 57.1094 70.4492 56.6211 70.1953C55.8594 69.8047 55.1367 69.8437 54.8828 70.293C54.5703 70.8984 54.6484 71.2695 55.1758 71.7578L55.6641 72.2266L54.0625 73.0273C50.6836 74.6875 46.4648 77.4609 43.6133 79.8633C42.832 80.5273 42.1484 81.0547 42.1094 81.0547C42.0703 81.0547 41.9727 80.5469 41.8945 79.9219C41.7383 78.6328 41.3672 78.125 40.6055 78.125C39.5312 78.125 39.3359 79.1601 39.9414 81.7773L40.0391 82.207L38.9258 81.8164C38.3008 81.6016 37.5977 81.4844 37.3633 81.543C36.9141 81.6406 36.6211 82.3047 36.7578 82.9297C36.8164 83.2226 37.8125 83.9453 38.5742 84.2578C38.8477 84.3555 38.6523 84.6094 36.6797 86.8164C34.8438 88.8476 34.5898 89.4531 35.3516 90.1367C35.918 90.6641 36.543 90.3711 37.6172 89.1211C39.2773 87.1484 40.7031 85.7031 41.4648 85.2344C41.8555 84.9609 42.1875 84.6484 42.1875 84.4922C42.1875 84.2187 44.6094 82.0898 46.8359 80.3906C50.4688 77.6172 56.8555 74.1601 60.918 72.7539C63.0664 72.0312 65.918 71.2695 67.8516 70.918L68.9844 70.7031L70.293 71.8945C74.6094 75.8398 78.4766 81.2695 80.8594 86.7969C81.4648 88.1836 82.0898 89.4141 82.2461 89.5117C83.0664 90.0195 84.1797 89.0039 84.1797 87.7344C84.1797 86.0547 82.4219 81.6406 80.7422 79.1016C75.5273 71.2305 67.0508 64.3555 59.082 61.5234C54.7656 60 49.6484 59.3945 46.2305 60.0195L44.707 60.293L43.5938 59.0234C41.3477 56.4648 36.8945 53.125 33.2227 51.25C32.2461 50.7422 31.4453 50.2734 31.4453 50.1953C31.4453 50.0195 33.9844 47.7148 35.6445 46.3476C36.582 45.5859 36.7188 45.5469 39.0625 45.1953C42.3438 44.7266 48.5938 44.7266 51.8555 45.1953C69.082 47.6367 82.1094 57.5 87.9883 72.5195C89.5898 76.6406 90.4688 80.8398 90.7227 85.7812C90.8398 87.8906 90.918 88.3203 91.25 88.6133C91.6016 88.9258 91.6797 88.9258 92.1484 88.6523C92.6367 88.3789 92.6758 88.2617 92.7344 86.9141C92.8125 85.0976 92.4609 81.5625 91.9727 79.0625C91.0352 74.3359 89.2188 69.5898 86.8164 65.5273L85.9375 64.043L86.6211 63.4375C87.5781 62.6172 87.4609 61.4648 86.4258 61.2891C86.1523 61.25 86.0156 61.0547 85.9766 60.6445C85.8008 59.0625 84.1406 58.9648 83.8281 60.5078L83.6914 61.1523L82.2266 59.3555C79.7852 56.3867 76.6211 53.5547 73.125 51.2305C71.7578 50.3125 71.5625 50.1172 71.6406 49.707C71.6797 49.4531 71.8945 49.082 72.0898 48.9062C72.5781 48.457 72.5781 47.5391 72.0898 47.2656C71.543 46.9922 71.0742 47.0312 70.6836 47.3828C70.3711 47.6758 70.293 47.6758 69.8828 47.3828C69.0625 46.7969 68.4375 47.0508 67.8711 48.1836C67.8516 48.2031 66.8359 47.8125 65.6055 47.2851C61.4844 45.5273 56.3086 44.082 52.6953 43.6523C51.6016 43.5351 51.582 43.5156 51.7578 43.0469C52.0312 42.3242 51.9922 42.0312 51.543 41.582C51.2891 41.3281 50.957 41.2109 50.625 41.25C50.1953 41.2891 50.0781 41.2109 50.0391 40.8789C50 40.6055 49.8047 40.3906 49.5117 40.3125C48.457 40.0586 47.7148 41.1719 48.3203 42.0898L48.6328 42.5781H45.7422C44.1406 42.5781 42.4023 42.6172 41.875 42.6758C40.918 42.793 40.918 42.793 41.3867 42.4414C42.2266 41.8164 45.1758 40.2148 47.3633 39.2187C51.2695 37.4609 56.3086 35.918 60.2539 35.2734C61.6992 35.0586 62.0898 35.0391 62.5781 35.2539C62.9102 35.3906 64.1992 35.7031 65.4297 35.9375C72.7539 37.3242 80.293 41.3086 85.918 46.7578C90.1367 50.8789 92.8906 54.9805 95.0195 60.3516C95.6836 62.0312 95.918 62.4414 96.3477 62.5781C97.1289 62.8516 97.7344 62.2461 97.5977 61.3086C97.4414 60.1953 95.9766 56.7187 94.707 54.5117C93.5156 52.4023 93.4961 52.168 94.4531 52.1484C95 52.1484 95.3711 51.6992 95.3711 51.0351C95.3711 50.3711 94.8438 50 93.9062 50C93.2227 50 93.1641 49.9609 93.1641 49.4336C93.1641 48.2812 91.9531 47.832 91.25 48.7109L90.8789 49.1992L89.4531 47.5586C88.0078 45.8984 86.3477 44.3359 84.4336 42.8516C83.5352 42.1289 83.4375 42.0117 83.7109 41.7773C84.6094 41.0351 84.4141 40 83.2812 39.5312C82.9102 39.375 82.6172 39.1601 82.6172 39.0625C82.6172 38.9453 82.3828 38.7695 82.1094 38.6523C81.3672 38.3789 80.6641 38.8672 80.6641 39.6484C80.6641 39.9805 80.625 40.2344 80.5664 40.2344C80.5273 40.2344 79.9805 39.9219 79.375 39.5312C77.8125 38.5351 73.4375 36.4258 71.2695 35.6445L69.4336 34.9805H70.8008C73.5352 34.9609 77.9883 35.625 81.9336 36.6211C85.5664 37.5586 89.082 38.8867 92.7539 40.7617C96.0547 42.4414 96.4844 42.5391 96.8945 41.7578C97.2852 41.0156 96.9531 40.5469 95.3711 39.6484C94.5312 39.1797 93.4766 38.5351 93.0078 38.2226C91.6016 37.2851 89.0625 36.1719 85.7031 35.0586L82.5195 34.0039L82.4609 33.0664L82.4023 32.1289L83.6328 32.1094C85.1172 32.0898 85.7617 31.7773 86.8555 30.5859C87.3633 30.0195 87.832 29.6875 88.125 29.6875C88.3789 29.6875 89.0234 29.4336 89.5703 29.1211C90.8008 28.418 91.3086 27.5 91.1523 26.25C91.0938 25.5664 91.1523 25.332 91.4648 25.0586C92.1484 24.4336 92.7734 22.8516 92.7734 21.6797C92.7734 19.707 91.1133 17.6758 89.1797 17.2851C87.9883 17.0312 87.8906 16.9726 87.8906 16.4453C87.8906 15.8984 87.3242 14.5898 86.875 14.043C85.7422 12.6758 83.5547 11.9336 81.7383 12.3047C79.6289 12.7344 77.7344 14.7461 77.7344 16.5234C77.7344 17.1094 77.6758 17.1875 77.2461 17.1875C76.582 17.1875 75.4102 17.6953 74.8242 18.2226C73.2031 19.7266 73.3008 22.7344 75.0391 24.5508L75.6445 25.1758L75.293 25.8789C74.8438 26.8359 75.0391 28.0469 75.7812 29.082C76.4844 30.0586 76.9336 30.3516 78.75 31.0547L80.1758 31.6211L80.1172 32.4609C80.0781 32.9297 80 33.3398 79.9609 33.3789C79.9219 33.4375 78.9844 33.3203 77.8711 33.1445C74.1602 32.5586 71.2891 32.3633 66.7578 32.4609L62.3047 32.5391V32.0117C62.3047 31.5234 62.3633 31.4844 63.5352 31.3672C66.2891 31.0937 68.1641 30.2344 68.1641 29.2578C68.1641 29.0625 68.4766 28.75 68.9258 28.5156C69.8242 28.0664 70.6445 27.0703 70.8203 26.2305C70.8984 25.8398 70.8008 25.3125 70.5078 24.668L70.0977 23.6719L70.625 22.6367C71.0742 21.7773 71.1719 21.2695 71.25 19.8242C71.3281 18.1836 71.2891 17.9883 70.7617 16.9922C69.8242 15.2344 67.9688 14.1211 66.2109 14.2969C65.5078 14.3555 65.5078 14.3555 65.1758 13.2812C64.7852 11.9531 63.8281 10.8789 62.4219 10.2344C61.0156 9.58983 58.8867 9.58983 57.5195 10.2344ZM62.4805 12.4609C63.7109 13.3789 63.9648 14.2773 63.5742 16.3476C63.3203 17.793 64.2578 18.2422 65.4102 17.2656C66.6211 16.25 68.3398 16.5039 69.1406 17.832C70 19.2383 69.8047 20.9375 68.5742 22.7539C67.5586 24.2578 67.5195 24.3945 67.8711 24.9219C68.0273 25.1758 68.3398 25.3906 68.5742 25.3906C69.0625 25.3906 69.2578 25.8789 68.9453 26.2891C68.8086 26.4453 68.1641 26.7187 67.5391 26.8945C66.3867 27.2266 65.8789 27.6758 66.0938 28.2422C66.3867 29.0039 60.6445 29.2969 58.2031 28.6328C56.5039 28.1641 54.7656 27.2266 53.7695 26.2305C52.7734 25.2344 52.6953 24.9219 53.5352 25.2734C54.2969 25.6055 54.8633 25.4687 55.0586 24.9219C55.293 24.3359 54.9805 23.4961 54.3359 22.8906C52.3047 20.9961 51.9922 16.5039 53.8086 15.3125C54.4531 14.9023 54.8828 15.0781 54.8828 15.7617C54.8828 16.582 55.3906 17.1875 56.0547 17.1875C56.8555 17.1875 57.3047 16.4648 57.168 15.3906C57.0508 14.5117 57.4609 13.4766 58.1641 12.832C59.1992 11.8945 61.4648 11.6992 62.4805 12.4609ZM84.9023 14.668C85.8008 15.2344 86.1914 16.0742 86.2109 17.5391C86.2305 19.082 86.543 19.3945 87.9102 19.2187C89.1016 19.0625 90.4688 19.6289 90.8984 20.4883C91.5625 21.7578 91.1523 23.0664 89.8047 23.9648C89.1602 24.3945 88.9453 24.668 88.9062 25.1367C88.8672 25.6055 88.9453 25.8008 89.2383 25.9766C89.4727 26.0937 89.6484 26.3476 89.6484 26.5625C89.6484 26.9336 88.7891 27.3242 87.207 27.6562C86.582 27.793 86.3477 27.9883 85.9961 28.6328C85.7422 29.0625 85.2539 29.5898 84.8828 29.7851C84.2383 30.1367 84.1406 30.1367 82.7734 29.8437C80.6445 29.375 79.082 28.7305 78.3789 28.0078C77.2852 26.9336 77.6367 25.9766 79.082 25.9766C79.5117 25.9766 79.7656 25.8398 80 25.4883C80.4688 24.7851 80.1367 24.1406 79.1602 23.8281C77.3633 23.2422 76.3672 22.1875 76.3672 20.8594C76.3672 20.3125 76.5039 20.0391 76.9727 19.6484C77.6562 19.0625 78.2031 19.0039 79.082 19.4531C79.6484 19.7461 79.7461 19.7266 80.1953 19.4336C80.6445 19.1406 80.6836 19.0039 80.5859 18.3984C80.2539 16.5039 80.2539 16.3086 80.6445 15.6641C81.5234 14.2773 83.5156 13.8086 84.9023 14.668ZM25.8789 29.375C26.875 29.8047 27.3438 30.7031 27.3438 32.168C27.3438 33.2422 27.4023 33.418 27.832 33.7109C28.125 33.9062 28.457 33.9648 28.7305 33.8867C30.5664 33.3008 32.6172 34.4922 32.6172 36.1328C32.6172 36.9922 31.9531 38.0664 31.1914 38.4375C30.8984 38.5742 30.5859 38.8476 30.4688 39.0625C30.2148 39.5508 30.5273 40.3516 31.0547 40.5273C32.0117 40.8398 31.0742 41.6601 29.1211 42.2266C28.3984 42.4414 28.2227 42.5976 28.0273 43.1445C27.6562 44.2773 27.0508 44.5898 25.5859 44.4726C23.9062 44.3359 20.5859 43.2617 20 42.6758C19.1797 41.8555 19.4922 41.0156 20.625 41.0156C21.3672 41.0156 21.875 40.5859 21.875 39.9609C21.875 39.375 21.6406 39.1797 20.293 38.6914C18.1836 37.8906 17.168 36.0742 18.2031 34.8633C18.75 34.2383 19.4531 34.1601 20.4688 34.5898C20.918 34.7851 21.1914 34.8047 21.4258 34.6484C22.0703 34.2383 22.1484 33.8867 21.8164 32.793C21.4648 31.6992 21.5625 30.7812 22.1094 30.1172C22.9102 29.1406 24.5508 28.8281 25.8789 29.375Z" fill="#749958"/>
</svg>
