<svg width="100" height="100" viewBox="0 0 100 100" fill="none" xmlns="http://www.w3.org/2000/svg">
<path d="M8.31252 19.625C8.75252 19.8606 9.16877 20.1318 9.59377 20.4C9.93002 20.615 10.2688 20.8231 10.6125 21.0312C11.575 21.615 12.5313 22.2062 13.4938 22.8C14.1813 23.2256 14.8688 23.65 15.5625 24.0687C15.6794 24.14 15.7969 24.2106 15.9138 24.2818C16.0806 24.3831 16.2475 24.4843 16.4144 24.5856C16.4632 24.6153 16.5119 24.6452 16.5625 24.6756C16.8613 24.8556 17.1644 25.0162 17.4813 25.1662C17.7231 25.2943 17.8775 25.4562 18.0069 25.695C18.1219 26.1062 18.1206 26.445 18.0538 26.8637C18.095 26.8852 18.1363 26.9066 18.1788 26.9287C18.6469 27.1762 19.1038 27.4393 19.56 27.71C25.6975 31.31 30.56 32.1475 39.685 30.5475C41.5225 30.2043 43.3475 29.9037 45.21 29.7412C45.2831 29.7345 45.2831 29.7345 45.3581 29.7276C45.6419 29.7016 45.925 29.6863 46.2081 29.6787C46.2713 29.677 46.335 29.6753 46.4 29.6736C49.2938 29.6086 52.0063 30.0992 54.65 31.2361C54.705 31.2592 54.76 31.2825 54.8169 31.3067C54.869 31.33 54.9213 31.3533 54.975 31.3773C55.1425 31.4362 55.2719 31.4473 55.4494 31.4486C55.5111 31.4497 55.5731 31.4508 55.6363 31.4519C55.7025 31.4529 55.7688 31.4539 55.8369 31.4549C56.6369 31.4781 57.4057 31.5843 58.1931 31.7437C58.2769 31.7601 58.2769 31.7601 58.3625 31.7769C59.4563 31.9982 60.5188 32.3513 61.5813 32.6894C64.1688 33.5144 64.1688 33.5144 66.8188 34.1207C66.9113 34.1375 66.9113 34.1375 67.0057 34.1547C70.9057 34.8547 74.7556 34.3553 78.3806 32.6859C78.4563 32.6245 78.4563 32.6245 78.4475 32.5078C78.446 32.4582 78.4445 32.4084 78.4429 32.3572C78.4419 32.3027 78.4408 32.2484 78.4397 32.1922C78.437 32.0772 78.4338 31.9628 78.43 31.8478C78.4238 31.4622 78.4541 31.204 78.7156 30.8978C79.0244 30.5947 79.3719 30.5097 79.7844 30.4022C81.2781 29.9753 82.6781 29.2647 84.0719 28.5834C84.2575 28.4934 84.4437 28.4047 84.63 28.3165C85.3362 27.9822 86.0362 27.6353 86.7237 27.2665C87.0144 27.1122 87.3069 26.9603 87.5987 26.8084C88.1075 26.5434 88.6175 26.2772 89.1237 26.0084C89.2119 25.962 89.3 25.9159 89.3881 25.8697C89.4944 25.8138 89.6 25.7565 89.7056 25.6984C90.0306 25.5534 90.3806 25.5522 90.7181 25.6728C91.0406 25.8509 91.2162 26.0809 91.3212 26.4353C91.3791 26.719 91.3418 26.9347 91.2037 27.1915C90.8094 27.754 90.11 28.029 89.51 28.3103C89.8925 30.1978 90.4287 32.0228 91.0225 33.8478C91.0689 33.9909 91.115 34.134 91.1612 34.2772C92.0425 37.0022 93.0612 39.6834 94.1925 42.2772C94.2212 42.3434 94.2499 42.4103 94.2794 42.479C95.0169 44.1853 95.7981 45.8728 96.7544 47.4665C96.7832 47.5147 96.812 47.5628 96.8419 47.6128C97.1312 48.0928 97.4331 48.5565 97.7731 49.0003C98.0275 49.3659 98.1231 49.6503 98.0662 50.0878C97.9344 50.4697 97.6875 50.6853 97.3287 50.8628C97.01 50.9253 96.7312 50.9328 96.4412 50.7678C95.4412 49.9678 94.7975 48.5115 94.1912 47.399C94.1655 47.3518 94.1397 47.3047 94.1131 47.2559C93.4631 46.0559 92.8881 44.8122 92.3506 43.5622C92.2719 43.3809 92.1906 43.2022 92.1081 43.0228C91.9181 42.6059 91.7437 42.1853 91.5694 41.7603C91.5359 41.679 91.5025 41.5978 91.4687 41.5165C91.15 40.7415 90.8375 39.9665 90.5437 39.179C90.4694 38.979 90.3937 38.7797 90.3169 38.5809C89.9337 37.5809 89.5919 36.5684 89.2606 35.5559C89.1687 35.2778 89.0756 35.0003 88.98 34.7247C88.6844 33.8622 88.4231 32.9997 88.1737 32.1247C88.1502 32.0428 88.1502 32.0428 88.1262 31.959C87.9544 31.3584 87.7894 30.7528 87.6356 30.1528C87.6221 30.1002 87.6086 30.0478 87.5946 29.9934C87.5824 29.9445 87.5701 29.8953 87.5576 29.8453C87.5467 29.8024 87.5359 29.7597 87.5248 29.7153C87.5018 29.5928 87.5018 29.5928 87.5018 29.3428C87.4449 29.3716 87.3881 29.4005 87.3293 29.4303C86.7818 29.7065 86.2293 29.9734 85.6731 30.2365C85.3462 30.3915 85.023 30.5509 84.6981 30.7147C83.4168 31.3584 82.1043 31.9334 80.7481 32.4084C80.7796 33.0584 80.8999 33.6834 81.0293 34.3209C81.0402 34.3753 81.0512 34.4297 81.0626 34.4859C81.4213 36.2609 81.8876 37.9984 82.4376 39.7234C82.4501 39.7632 82.4626 39.8028 82.4756 39.844C83.1506 41.9753 83.9631 44.0565 84.8756 46.094C84.9282 46.2134 84.9812 46.3328 85.0337 46.4522C85.4068 47.2959 85.8149 48.1209 86.2524 48.9272C86.3781 49.1603 86.4981 49.3953 86.6143 49.6334C86.9424 50.3022 87.3143 50.9459 87.6893 51.5897C87.7301 51.6597 87.7712 51.729 87.8131 51.8015C88.8693 53.6015 90.0006 55.364 91.2818 57.014C91.3787 57.1528 91.3787 57.1528 91.3787 57.2778C91.4356 57.249 91.4924 57.2201 91.5512 57.1903C95.4137 55.2403 95.4137 55.2403 96.3574 55.534C96.6537 55.699 96.8337 55.8847 96.9437 56.2153C97.0306 56.9153 97.0774 57.6278 97.0924 58.334L97.0978 58.5484C97.0519 58.9159 96.9859 59.3109 96.7059 59.5734C96.5628 59.6628 96.419 59.734 96.2647 59.8028L96.0922 59.8865C95.8984 59.979 95.7028 60.0672 95.5072 60.1547C95.4003 60.2033 95.4003 60.2033 95.2915 60.2528C94.1541 60.7684 92.9915 61.2278 91.8228 61.6528L91.6584 61.7135C91.5259 61.762 91.3934 61.8091 91.2603 61.856C91.1934 61.8795 91.1265 61.903 91.0572 61.9272C90.8678 61.9692 90.7572 61.961 90.5728 61.9028C90.2034 61.6647 90.0591 61.3615 89.8853 60.9653C89.6572 61.0515 89.4478 61.154 89.2353 61.2722L89.0347 61.3834C88.9278 61.4431 88.9278 61.4431 88.819 61.504C88.744 61.5459 88.669 61.5878 88.5934 61.6297C87.9497 61.9903 87.3059 62.3547 86.6622 62.7234C86.2478 62.9609 85.8309 63.1972 85.4184 63.4297C84.6684 63.8528 83.9184 64.2797 83.1747 64.7109C82.954 64.8372 82.7328 64.9634 82.5122 65.0897C82.4762 65.1102 82.4403 65.1308 82.4028 65.152C82.2209 65.2558 82.039 65.3595 81.8572 65.4639C81.5272 65.6527 81.1947 65.8408 80.8697 66.0302C80.6853 66.1358 80.5003 66.2414 80.3159 66.347C80.2797 66.3678 80.2434 66.3885 80.2059 66.4102C79.7515 66.6702 79.2934 66.9283 78.8372 67.1852C78.7066 67.2577 78.5765 67.3314 78.4472 67.4052C78.1415 67.5795 77.8365 67.7445 77.5159 67.8945C76.9515 68.1483 76.9515 68.1483 76.5722 68.607C76.4972 68.9277 76.4984 69.2445 76.5078 69.5758C76.5136 70.4758 75.9415 71.482 75.3828 72.157C75.3383 72.2109 75.294 72.2645 75.2478 72.3202C74.5415 73.1389 73.7228 73.6514 72.6978 73.9702C72.6228 73.9935 72.5472 74.0167 72.4697 74.0408C72.1228 74.1245 71.7697 74.1108 71.4134 74.107C71.3453 74.107 71.2772 74.107 71.2072 74.1069C70.8434 74.1049 70.4947 74.0874 70.1322 74.0325C70.1222 74.078 70.1124 74.1232 70.1022 74.17C69.784 75.5388 69.0084 76.695 67.8209 77.4638C66.5334 78.2575 65.1272 78.5325 63.6522 78.2013C63.3428 78.1263 63.0522 78.025 62.7584 77.9082C62.7417 77.9744 62.7249 78.0413 62.7077 78.11C62.4414 79.1163 61.9952 79.8663 61.2577 80.5975C61.2097 80.6477 61.1614 80.6975 61.112 80.7494C60.112 81.7307 58.712 82.1119 57.3495 82.1182C56.7808 82.1127 56.2995 82.01 55.7558 81.8475C55.5102 81.7916 55.3664 81.7625 55.1427 81.8827C54.2427 82.3195 53.2489 82.5889 52.2739 82.7639C52.2326 82.7714 52.1914 82.7789 52.1489 82.7865C50.5489 83.059 48.9114 82.9078 47.3302 82.5853C47.0383 82.5257 47.0383 82.5257 46.757 82.5961L46.632 82.7836H46.507C46.4917 82.82 46.4764 82.8567 46.4607 82.8942C46.0907 83.5505 45.0669 83.9567 44.3732 84.1567C44.19 84.2047 44.0069 84.2474 43.8219 84.2861L43.6482 84.3225C41.9669 84.5406 40.2544 84.0931 38.8982 83.0787C37.8044 82.2287 36.9982 81.11 36.5732 79.785V79.5975C36.5158 79.6103 36.4582 79.6231 36.3994 79.6363C36.3226 79.6531 36.2463 79.67 36.1669 79.6873C36.0538 79.7123 36.0538 79.7123 35.9382 79.7379C34.3882 80.0416 32.8944 79.7732 31.5569 78.9191C30.3319 78.0941 29.5257 76.8879 29.1382 75.4691C29.1229 75.4133 29.1075 75.3578 29.0918 75.3004C28.993 74.8797 29.0012 74.4629 29.013 74.0316C28.9749 74.0406 28.9368 74.0497 28.8974 74.059C27.2724 74.389 25.6599 74.066 24.2599 73.1777C23.0224 72.3277 22.3349 71.0402 22.0349 69.6027C22.0022 69.3496 22.0007 69.1008 22.002 68.8465C22.0017 68.7977 22.0015 68.749 22.0013 68.6983C22.0017 68.4283 22.0186 68.1746 22.0725 67.9109C22.0006 67.9255 22.0006 67.9255 21.9275 67.9404C20.8525 68.1354 19.7588 67.9925 18.8338 67.3848C18.788 67.3522 18.7425 67.3198 18.695 67.286C18.6493 67.254 18.6038 67.2223 18.5563 67.1892C17.0313 66.0642 16.0438 64.2642 15.7375 62.4079C15.6131 61.4829 15.6338 60.5142 16.1838 59.7329C16.28 59.5917 16.28 59.5917 16.2594 59.3523C16.175 59.2592 16.175 59.2592 16.0556 59.186C16.0119 59.1562 15.9681 59.1265 15.9231 59.096C15.8756 59.0648 15.8281 59.0335 15.7788 59.001C15.68 58.9335 15.5806 58.866 15.4819 58.7985C15.4329 58.7652 15.3838 58.7317 15.3338 58.6973C15.1531 58.5723 14.9794 58.4404 14.8063 58.3054C14.7419 58.2555 14.6775 58.2054 14.6113 58.1542L14.505 58.071C13.73 57.4698 12.9613 56.8773 12.1363 56.3523C12.1193 56.4273 12.1023 56.5023 12.0848 56.5792C12.0267 56.8104 11.9479 57.0123 11.8354 57.2229C11.8053 57.2815 11.7753 57.3398 11.7441 57.4004C11.636 57.5392 11.636 57.5392 11.491 57.5867C11.296 57.6047 11.2066 57.573 11.031 57.4885C10.9749 57.4618 10.9185 57.4352 10.861 57.4079C10.771 57.363 10.771 57.363 10.6791 57.3173C10.616 57.2864 10.5529 57.2555 10.4879 57.2235C9.40663 56.6848 8.36913 56.061 7.38163 55.3735C7.27163 55.2985 7.16038 55.226 7.0485 55.1548C6.7285 54.9429 6.51225 54.7879 6.4235 54.4048C6.41257 54.3467 6.40157 54.2885 6.39032 54.2285C6.35125 54.051 6.31032 53.8742 6.26907 53.6973C6.25869 53.6507 6.24832 53.6042 6.23769 53.556C6.18032 53.3054 6.11332 53.0842 5.99582 52.856C5.85894 52.5735 5.85394 52.3417 5.95282 52.0435C6.10282 51.7573 6.26344 51.581 6.54282 51.4185C6.95594 51.3023 7.23657 51.3435 7.61157 51.5417C7.649 51.5612 7.68657 51.5807 7.72469 51.6008C8.14844 51.8252 8.55594 52.0721 8.96844 52.3196C9.08157 52.3883 9.19469 52.4565 9.30782 52.5246C9.40844 52.5852 9.50907 52.6465 9.60969 52.7071C9.75344 52.8021 9.75344 52.8021 9.88969 52.7921C10.4322 51.0921 10.9647 49.3921 11.4022 47.6609C11.4545 47.4565 11.5072 47.2521 11.5597 47.0477C12.9597 41.5915 14.0222 36.0477 15.1034 30.1102C15.1122 30.062 15.1209 30.014 15.1299 29.964C15.2136 29.5027 15.2968 29.039 15.3793 28.5827C15.4019 28.4565 15.4246 28.3302 15.4474 28.204C15.4749 28.0515 15.5023 27.8984 15.5293 27.7459C15.5904 27.4071 15.6574 27.0771 15.7605 26.7521C15.6968 26.7294 15.6968 26.7294 15.6311 26.7062C15.4124 26.6119 15.218 26.49 15.0186 26.3612C14.5961 26.0931 14.1686 25.8312 13.7436 25.5737C13.3061 25.3081 12.8686 25.04 12.4374 24.7675C11.8661 24.4037 11.2874 24.055 10.7061 23.6987C10.223 23.4062 9.74363 23.1119 9.26238 22.8175C9.2571 22.8709 9.25182 22.9244 9.24638 22.9794C8.64701 28.9356 7.49638 35.2294 4.42763 42.3544C4.39769 42.4125 4.36769 42.4706 4.337 42.5306C3.8795 43.3931 3.8795 43.3931 3.49325 43.6306C3.1295 43.7294 2.80575 43.7681 2.462 43.5876C2.207 43.4026 2.05013 43.2432 1.95013 42.9439C1.88513 42.4401 2.01638 42.1251 2.26263 41.6939C4.93763 36.9064 5.92513 30.8189 7.01263 23.2564C7.01842 23.2086 7.02419 23.1607 7.03013 23.1114C7.06494 22.8201 7.09513 22.5289 7.122 22.2364C7.12969 22.167 7.13738 22.0976 7.14525 22.0264C7.1705 21.7001 7.17369 21.5045 6.95526 21.2514C6.89151 21.1907 6.82713 21.1301 6.76275 21.0707C6.6265 20.7976 6.6515 20.4082 6.743 20.127C7.07613 19.4895 7.73675 19.3645 8.343 19.6514L8.31252 19.625ZM17.5 29.0625L17.4603 29.2743C17.4514 29.3217 17.4425 29.3687 17.4334 29.4175C17.4128 29.5268 17.3923 29.6368 17.3718 29.7462C17.311 30.0706 17.2499 30.3962 17.1893 30.7212C17.063 31.3962 16.9374 32.065 16.813 32.74C16.0755 36.7337 15.3255 40.74 14.3755 44.6775C14.3576 44.7518 14.3398 44.8256 14.3213 44.9025C13.8688 46.7775 13.3963 48.6462 12.8588 50.4962C12.8455 50.5418 12.8321 50.5875 12.8185 50.6343C12.7441 50.885 12.6653 51.1331 12.5822 51.3781C12.5643 51.4322 12.5463 51.4862 12.5278 51.5418C12.4931 51.6462 12.4578 51.75 12.421 51.8537C12.4054 51.9005 12.3898 51.9475 12.3738 51.9956C12.3525 52.0573 12.3525 52.0573 12.3307 52.12C12.3105 52.2818 12.3509 52.355 12.4407 52.4893C12.5982 52.5875 12.7526 52.6743 12.917 52.7587C13.6545 53.1537 14.3607 53.6025 15.067 54.0525C15.1179 54.0848 15.1688 54.1175 15.2213 54.1506C16.5026 54.9693 17.7588 55.8381 18.9588 56.7756C19.009 56.8144 19.009 56.8144 19.0601 56.8537C19.1532 56.9256 19.2457 56.9981 19.3382 57.0706C19.582 57.2293 19.7282 57.2587 20.0132 57.2075C20.0838 57.1893 20.1551 57.1712 20.2276 57.1525C21.5338 56.8594 22.8963 57.2219 24.0213 57.9088C24.4801 58.2019 24.8713 58.54 25.2588 58.9275L25.4126 59.0794C25.972 59.6613 26.3188 60.3794 26.6313 61.1169C26.8945 61.1169 27.0201 60.9688 27.2132 60.8082C28.6382 59.6582 30.1445 58.9894 32.0132 59.1332C33.5695 59.3444 35.0007 60.3332 35.9445 61.5582C36.3751 62.1719 36.7132 62.8644 37.0007 63.5519C37.0531 63.5505 37.1057 63.549 37.1595 63.5475C38.822 63.5226 40.4845 63.7463 41.7532 64.9288C43.0782 66.2163 43.5032 67.8975 43.6282 69.6788C43.6693 69.6941 43.7101 69.7094 43.7526 69.7251C45.1838 70.2883 46.4276 71.2064 47.6338 72.1501C47.7438 72.2358 47.8538 72.3201 47.9645 72.4039C48.3795 72.7201 48.7832 73.0476 49.1895 73.3726C49.457 73.5908 49.7263 73.8058 49.9957 74.0164C50.3295 74.277 50.6582 74.5433 50.9832 74.8164C53.3457 76.7976 53.3457 76.7976 55.9332 78.4601C55.9706 78.4806 56.0082 78.5009 56.047 78.522C56.6332 78.8295 57.1407 78.8626 57.772 78.6801C58.7032 78.3458 59.347 77.7176 59.7657 76.8301C59.8857 76.5708 59.9601 76.3408 59.9963 76.0551C59.9532 76.0241 59.9101 75.9931 59.8657 75.9614C59.2545 75.5195 58.6782 75.0676 58.122 74.5551C58.0658 74.5043 58.0095 74.4533 57.952 74.4008C57.3957 73.8945 56.8645 73.3695 56.3332 72.832C56.1857 72.6839 56.0376 72.5364 55.8901 72.3889C55.7951 72.2939 55.7001 72.1989 55.6051 72.1039C55.5614 72.0603 55.5176 72.017 55.4726 71.972C55.2876 71.7864 55.1101 71.6014 54.9463 71.397C54.9021 71.3452 54.8576 71.2933 54.8126 71.2401H54.6876C54.6672 71.1892 54.6672 71.1892 54.6464 71.137C54.5345 70.9401 54.382 70.7939 54.2214 70.637C54.1866 70.6024 54.152 70.5676 54.1158 70.532C54.0401 70.457 53.9645 70.382 53.8889 70.3076C53.7689 70.1889 53.6489 70.0701 53.5295 69.9514C53.232 69.6558 52.9339 69.3608 52.6358 69.0639C52.3839 68.8145 52.1326 68.5651 51.8795 68.3139C51.762 68.197 51.6445 68.0814 51.5264 67.9651C50.4639 66.9151 50.4639 66.9151 50.4326 66.3651C50.4632 66.0358 50.5639 65.7833 50.8076 65.5526C51.1364 65.3695 51.3783 65.3301 51.7451 65.3651C52.0245 65.4826 52.2164 65.6251 52.4264 65.8395C52.5139 65.9264 52.5139 65.9264 52.6026 66.0151C52.665 66.0783 52.7276 66.1414 52.7895 66.2045C52.8545 66.2695 52.9195 66.3345 52.9839 66.3995C53.1195 66.5351 53.2545 66.6714 53.3895 66.8076C53.562 66.982 53.7358 67.1564 53.9089 67.3301C54.0751 67.4964 54.2408 67.6633 54.4064 67.8295C54.4536 67.8769 54.4536 67.8769 54.502 67.9251C54.5914 68.0151 54.6801 68.1045 54.7695 68.1945C54.8201 68.2456 54.8708 68.2964 54.9233 68.3495C55.0545 68.4901 55.0545 68.4901 55.1583 68.6333C55.1859 68.6684 55.2135 68.7039 55.242 68.7395H55.367C55.3866 68.7895 55.3866 68.7895 55.4065 68.8408C55.5259 69.0489 55.6903 69.2051 55.8596 69.3726C55.8973 69.4104 55.9346 69.4483 55.9734 69.487C56.0978 69.6114 56.2228 69.7358 56.3478 69.8601C56.4347 69.947 56.5215 70.0339 56.6084 70.1208C56.7909 70.3033 56.9734 70.4851 57.1559 70.667C57.389 70.8989 57.6215 71.1314 57.8559 71.367C58.0353 71.5464 58.2153 71.7258 58.3953 71.9051C58.4809 71.9908 58.5665 72.0764 58.6528 72.162C59.2734 72.7845 59.2734 72.7845 59.934 73.3683C59.9891 73.4146 59.9891 73.4146 60.0453 73.462C61.1515 74.387 62.3453 75.0245 63.8328 74.912C65.1015 74.7458 66.2078 74.1308 66.9953 73.1183C67.269 72.722 67.6203 72.212 67.6203 71.712C67.529 71.4833 67.3553 71.3876 67.1553 71.2589C66.8159 71.0289 66.5115 70.7864 66.2115 70.5089C66.0553 70.3664 65.8934 70.2339 65.7284 70.1014C65.3621 69.8045 65.0159 69.4876 64.6721 69.1639C64.5484 69.0476 64.424 68.932 64.2996 68.8158C64.2115 68.7333 64.1228 68.6508 64.0346 68.5683C63.9938 68.5301 63.9528 68.492 63.9109 68.4526C63.7171 68.2714 63.5271 68.0883 63.3409 67.8995C63.1978 67.7551 63.0509 67.6195 62.8959 67.4876C62.6596 67.2839 62.4403 67.067 62.2209 66.8439C62.1855 66.8082 62.1503 66.7726 62.114 66.7358C61.9665 66.5864 61.819 66.437 61.6721 66.2876C61.5634 66.177 61.4546 66.0676 61.3459 65.9576C61.3126 65.9234 61.279 65.8895 61.2446 65.8539C61.164 65.7726 61.0803 65.6945 60.9953 65.6176H60.8703C60.8532 65.5803 60.8362 65.5426 60.8186 65.5045C60.7474 65.3714 60.6786 65.2864 60.5718 65.1808C60.5195 65.1288 60.5195 65.1288 60.4661 65.0758C60.4285 65.0389 60.3911 65.002 60.3524 64.9645C60.3134 64.9258 60.2743 64.887 60.2343 64.847C60.1093 64.7233 59.9843 64.6001 59.8593 64.477C59.6955 64.3151 59.5318 64.1539 59.368 63.9914C59.3288 63.9526 59.2899 63.9139 59.2493 63.8739C59.018 63.6433 58.7968 63.4083 58.5868 63.1614C58.4311 62.9814 58.2605 62.817 58.0905 62.6508C57.838 62.4008 57.593 62.1495 57.3655 61.8758C57.2405 61.7314 57.1105 61.592 56.9805 61.4526C55.6618 60.0401 55.6618 60.0401 55.6055 59.4776C55.6297 59.1826 55.7011 58.9783 55.8749 58.7401C56.1824 58.4895 56.4311 58.4614 56.8249 58.457C57.2743 58.5408 57.5311 58.8133 57.8061 59.157C57.8718 59.2358 57.9374 59.3145 58.0024 59.3933C58.0341 59.4317 58.0655 59.4701 58.0986 59.5095C58.308 59.7608 58.5305 60.0008 58.7486 60.2408C58.8018 60.299 58.8549 60.357 58.9099 60.417C59.0543 60.5751 59.1993 60.7326 59.3443 60.8901C59.4399 60.9945 59.5355 61.0989 59.6311 61.2033C59.9212 61.5195 60.2124 61.8345 60.5186 62.1345C60.6211 62.2395 60.7161 62.3476 60.8111 62.4595C61.1105 62.8033 61.4336 63.122 61.7549 63.447C61.8218 63.5139 61.8886 63.5808 61.9555 63.6476C62.0949 63.787 62.2343 63.9264 62.3736 64.0658C62.5512 64.2433 62.7286 64.4208 62.9061 64.5983C63.0436 64.7364 63.1818 64.8739 63.3199 65.012C63.3855 65.0776 63.4505 65.1426 63.5161 65.2083C63.8405 65.5333 64.1661 65.852 64.5161 66.152C64.6299 66.2514 64.7355 66.3558 64.8411 66.4633C65.0255 66.6501 65.218 66.8226 65.4168 66.9939C65.5555 67.1158 65.6918 67.2408 65.8274 67.3664C66.2055 67.717 66.5961 68.0476 66.9961 68.3664C67.0693 68.4262 67.1418 68.4864 67.2149 68.5464C67.7449 68.9808 68.2836 69.3839 68.8711 69.7401C68.9139 69.7664 68.9568 69.7926 69.0005 69.8195C69.7255 70.2558 70.4068 70.5508 71.2693 70.3614C71.9818 70.1439 72.5068 69.7658 72.8943 69.1301C73.3968 68.1301 73.328 67.0614 72.9868 66.0239C72.5936 64.9551 71.9368 64.0926 71.1618 63.2801C71.0574 63.1701 70.9543 63.0595 70.8518 62.9476C70.433 62.4933 70.008 62.0476 69.5643 61.6164C69.3962 61.4508 69.2337 61.2851 69.0843 61.1026C68.9693 60.9633 68.8518 60.8364 68.723 60.7095C68.6012 60.5883 68.4799 60.467 68.358 60.3451C68.3073 60.2942 68.2568 60.2433 68.2043 60.1908C68.1495 60.1358 68.0949 60.0808 68.038 60.0239C67.4443 59.4283 66.8505 58.8301 66.2568 58.2364C65.8974 57.8764 65.538 57.5176 65.1755 57.1551C64.8618 56.8401 64.5505 56.5239 64.2318 56.2114C64.0655 56.0451 63.8993 55.8783 63.7336 55.7114C63.5493 55.5258 63.3636 55.3408 63.1786 55.1558C63.0961 55.0726 63.0961 55.0726 63.0118 54.987C62.9616 54.9369 62.9111 54.887 62.8599 54.8351C62.8161 54.7913 62.7724 54.7476 62.7274 54.702C62.6274 54.5958 62.6274 54.5958 62.4943 54.6089L62.4318 54.4214H62.3068L62.2443 54.2339C62.1511 54.1395 62.1511 54.1395 62.033 54.0464C61.768 53.8226 61.5261 53.5814 61.2893 53.3339C61.2149 53.2576 61.1374 53.1845 61.0593 53.1114H60.9343L60.8718 52.9239C60.7874 52.8358 60.7874 52.8358 60.6768 52.7483C60.4224 52.5326 60.178 52.3083 59.933 52.0795C59.8931 52.0421 59.853 52.0045 59.8118 51.9664C59.5993 51.767 59.3868 51.5676 59.1743 51.3676C58.2243 50.4739 58.2243 50.4739 57.2305 49.6301C57.0536 49.4833 56.8843 49.3308 56.7149 49.1751C56.3818 48.8695 56.0336 48.5833 55.6836 48.3001C55.6099 48.2402 55.5361 48.1801 55.4624 48.1201C55.0718 47.8033 54.6749 47.4951 54.2686 47.2014C54.2331 47.1755 54.1974 47.1497 54.1611 47.1233C53.3986 46.5795 52.3174 46.6601 51.4299 46.807C50.5236 47.0026 49.6987 47.337 48.9361 47.8633L48.7668 47.9751C48.4311 48.2058 48.1293 48.4645 47.8355 48.7439C47.7954 48.7815 47.7555 48.8189 47.7136 48.8576C47.1655 49.3745 46.6386 49.9139 46.1074 50.4451C45.9005 50.6533 45.6943 50.8614 45.4868 51.0695C45.4161 51.1408 45.4161 51.1408 45.3443 51.2133C45.301 51.2568 45.258 51.3001 45.213 51.3451C45.175 51.3834 45.1368 51.422 45.098 51.4614C45.0018 51.5508 45.0018 51.5508 44.8768 51.6133V51.7383C44.8423 51.7526 44.808 51.7669 44.7724 51.7817C44.5861 51.8861 44.453 52.0192 44.2986 52.1679C43.5299 52.8867 42.6674 53.4679 41.7486 53.9867C41.7098 54.0089 41.6712 54.031 41.6311 54.0536C40.3686 54.7598 38.9499 55.0223 37.5311 54.7223C37.4624 54.7082 37.3943 54.694 37.3237 54.6794C36.6111 54.5263 36.0237 54.2988 35.4361 53.8607C35.3587 53.8033 35.3587 53.8033 35.2799 53.7444C34.5361 53.1069 34.1611 52.0569 33.9986 51.1132C33.9199 49.9569 34.0193 48.8632 34.3111 47.7382C34.3255 47.6826 34.3399 47.6269 34.3547 47.5694C34.6635 46.4069 35.1235 45.3007 35.686 44.2382C35.7097 44.1933 35.7333 44.1482 35.7578 44.1019C37.0078 41.7457 38.8578 39.6457 40.9391 37.9894C40.9897 37.9471 41.0403 37.9044 41.0922 37.8613C43.7172 35.6613 46.8422 34.0113 50.0297 32.7988C50.1716 32.7449 50.3141 32.6907 50.4553 32.6357C50.636 32.5657 50.8166 32.4963 50.9972 32.4276V32.2401C50.8035 32.2001 50.6091 32.1613 50.4153 32.1226C50.3627 32.1117 50.3103 32.1008 50.256 32.0896C49.2685 31.8959 48.2747 31.8409 47.2685 31.8453C47.2133 31.8454 47.1585 31.8455 47.1016 31.8456C45.6766 31.8505 44.2766 31.9869 42.8703 32.1881C42.801 32.1979 42.801 32.1979 42.731 32.208C41.5435 32.378 40.3622 32.5899 39.181 32.8024C37.956 33.023 36.7247 33.2411 35.4935 33.4167C35.4496 33.423 35.406 33.4293 35.3603 33.4357C34.0353 33.6239 32.7041 33.7676 31.3666 33.8026C31.3203 33.804 31.2741 33.8053 31.226 33.8068C27.326 33.9086 23.851 32.6193 20.476 30.738C20.4153 30.7041 20.3547 30.6705 20.2922 30.6355C19.6722 30.2886 19.0547 29.9355 18.4422 29.5793C18.4002 29.5547 18.3585 29.5301 18.3147 29.5049C18.1285 29.3949 17.9466 29.2824 17.7685 29.1599C17.6178 29.0411 17.6178 29.0411 17.4772 29.0524L17.5 29.0625ZM53.75 33.8125L53.5913 33.8491C51.76 34.2778 49.9725 34.9491 48.3038 35.8178C48.1869 35.8778 48.0694 35.936 47.9513 35.9928C46.9325 36.4885 45.9388 37.0553 45.0013 37.6866C44.9479 37.7227 44.8944 37.7591 44.8394 37.796C44.1081 38.291 43.3956 38.796 42.7206 39.3585C42.5875 39.4678 42.45 39.5722 42.3138 39.6778C41.2263 40.5528 40.1575 41.5778 39.3138 42.6841C39.2515 42.7628 39.1888 42.8416 39.1263 42.9197C37.72 44.701 36.6825 46.7072 36.1888 48.9322C36.1735 49.0003 36.1581 49.0691 36.1424 49.1391C35.9668 50.0453 35.9768 51.0641 36.4693 51.8703C36.7955 52.301 37.2193 52.5891 37.7505 52.6828C38.9193 52.7985 40.0568 52.186 40.938 51.4641C41.3574 51.1178 41.3574 51.1178 41.7505 50.7453V50.6203C41.8124 50.5997 41.8743 50.5791 41.938 50.5578C42.1418 50.3428 42.318 50.1035 42.5005 49.8703C42.5448 49.8142 42.5448 49.8142 42.5899 49.7572C43.1574 49.0385 43.6836 48.2885 44.2024 47.5322C45.5149 45.6385 46.7962 43.951 48.8774 42.8697L49.0043 42.8041C50.4043 42.0853 52.098 41.5041 53.6918 41.6228C54.0468 41.741 54.223 41.9447 54.3918 42.2728C54.4799 42.581 54.4805 42.8272 54.3255 43.1103C54.1161 43.4216 54.0049 43.5185 53.6318 43.6028C53.5674 43.6178 53.503 43.6328 53.4368 43.6483C53.2705 43.6842 53.1036 43.7189 52.9361 43.7514C52.9825 43.9627 52.9825 43.9627 53.2174 44.0539C53.2627 44.0752 53.308 44.0965 53.3549 44.1183C53.5999 44.2383 53.8274 44.3858 54.0549 44.532C54.1324 44.5811 54.1324 44.5811 54.2111 44.6314C54.7349 44.967 55.2424 45.3189 55.7486 45.6877C55.7906 45.7183 55.8324 45.7488 55.8755 45.7802C56.3893 46.1564 56.888 46.5489 57.3818 46.9489C57.6149 47.1402 57.8493 47.3277 58.088 47.5114C58.4568 47.7958 58.8005 48.0945 59.1443 48.4114C59.4099 48.6614 59.6893 48.8908 59.9755 49.1177C60.148 49.2614 60.3043 49.4152 60.4599 49.5764C60.5736 49.6902 60.6924 49.7952 60.8149 49.9002C61.0149 50.072 61.2005 50.2533 61.3855 50.4414C61.498 50.552 61.6143 50.6545 61.7343 50.757C62.0068 50.9939 62.2624 51.2452 62.5155 51.5008C62.5886 51.5739 62.5886 51.5739 62.663 51.6483C62.8224 51.8077 62.9818 51.967 63.1411 52.1264C63.2524 52.2377 63.3636 52.3489 63.4749 52.4602C63.7074 52.692 63.9393 52.9245 64.1686 53.1539C64.4368 53.4227 64.7055 53.6908 64.9749 53.9602C65.2337 54.2189 65.493 54.4777 65.7499 54.7352C65.8599 54.8452 65.9699 54.9552 66.0799 55.0652C66.233 55.2183 66.3862 55.3714 66.5393 55.5245C66.585 55.5702 66.6305 55.6158 66.678 55.6627C66.7195 55.7043 66.7611 55.7458 66.8036 55.7889C66.8398 55.8251 66.8762 55.8614 66.913 55.8983C66.9974 55.9908 66.9974 55.9908 67.0599 56.1158H67.1849C67.2018 56.153 67.2188 56.1902 67.2362 56.2289C67.3093 56.3645 67.3806 56.4514 67.4893 56.5583C67.5435 56.6122 67.5435 56.6122 67.5987 56.667C67.6572 56.7243 67.6572 56.7243 67.7168 56.7827C67.7572 56.8227 67.7975 56.8627 67.8393 56.9039C67.9687 57.032 68.0981 57.1595 68.2281 57.287C68.3568 57.4139 68.485 57.5408 68.6131 57.6677C68.6925 57.7464 68.7725 57.8252 68.8525 57.9039C69.0425 58.092 69.225 58.2833 69.4 58.4858C69.6306 58.7533 69.8762 59.0039 70.125 59.2545C70.1712 59.301 70.2175 59.3477 70.265 59.3952C70.3618 59.492 70.4587 59.5895 70.5556 59.6864C70.7043 59.8358 70.8531 59.9852 71.0018 60.1345C71.0962 60.2289 71.1906 60.3239 71.285 60.4183C71.3294 60.4632 71.3737 60.5083 71.42 60.5545C71.4817 60.6159 71.4816 60.6159 71.5443 60.6783C71.5805 60.7145 71.6168 60.7508 71.6537 60.7883C71.7425 60.8789 71.7425 60.8789 71.8712 60.8658C71.895 60.9205 71.895 60.9205 71.9193 60.9764C72.0043 61.1314 72.0975 61.2277 72.2262 61.3489C72.2724 61.3934 72.3187 61.4377 72.3662 61.4839C72.4156 61.5313 72.465 61.5789 72.5162 61.6277C73.4412 62.5339 74.1912 63.5652 74.7475 64.7402C75.015 64.7402 75.0418 64.7292 75.235 64.5708C75.2801 64.5345 75.325 64.4983 75.3718 64.4608C75.4437 64.4018 75.4437 64.4018 75.5168 64.3414C75.9768 63.9739 76.4481 63.6352 76.9418 63.3164C77.065 63.2358 77.1868 63.1533 77.3081 63.0708C78.5956 62.1958 79.9331 61.402 81.3143 60.677C81.3722 60.6462 81.43 60.6154 81.49 60.5839C83.7212 59.3964 86.0462 58.3402 88.4275 57.5589C88.595 57.4914 88.6812 57.4389 88.7931 57.2995C88.7657 57.263 88.7383 57.2264 88.71 57.1889C87.385 55.3889 86.2037 53.4514 85.1475 51.4889C85.0225 51.2564 84.8937 51.0277 84.7618 50.8014C84.45 50.2608 84.1818 49.7014 83.9181 49.1389C83.7906 48.8683 83.6606 48.5995 83.5275 48.3327C82.6712 46.6014 81.8775 44.8077 81.2525 42.9827C81.2321 42.9236 81.2118 42.8645 81.1909 42.8039C81.1454 42.6708 81.1003 42.5383 81.0546 42.4052C81.0011 42.2477 80.9471 42.0902 80.8934 41.9327C80.2184 39.9577 79.6371 37.9702 79.1684 35.9327C79.141 35.8164 79.1136 35.7002 79.0859 35.5845C79.0296 35.3464 78.9734 35.1083 78.9184 34.872C78.5815 34.9102 78.3053 35.0258 77.9934 35.157C75.6059 36.1383 73.0059 36.6383 70.4309 36.632C70.3859 36.632 70.3409 36.632 70.2946 36.6319C68.9821 36.6289 67.7134 36.4844 66.4259 36.245C66.3699 36.2352 66.314 36.2254 66.2565 36.2152C64.4003 35.8858 62.5878 35.2777 60.794 34.7027C58.519 33.9714 56.1315 33.2402 53.7315 33.8027L53.75 33.8125ZM20.25 59.5C19.5938 60.2375 19.2875 61.0687 19.3063 62.0562C19.3813 62.8687 19.7381 63.5062 20.3563 64.025C20.9738 64.4725 21.6125 64.6625 22.3625 64.6625C22.4388 64.664 22.4388 64.664 22.5163 64.6655C22.9944 64.6659 23.3475 64.5405 23.7038 64.2055V64.0805C23.7384 64.0661 23.7731 64.0517 23.8088 64.0368C23.9931 63.9331 24.1244 63.8037 24.2744 63.655L24.4388 63.4937C24.7419 63.1418 24.7406 62.775 24.7269 62.3312C24.6425 61.4187 24.0519 60.5937 23.3644 60.0187C22.5706 59.4131 21.1581 58.7812 20.2581 59.5087L20.25 59.5ZM28.1875 62.7625L28.0344 62.8993C27.4519 63.425 26.9031 63.9806 26.3469 64.5368C26.2506 64.6337 26.1544 64.73 26.0581 64.8268C25.8444 65.0412 25.6306 65.2562 25.4144 65.4706C25.3475 65.5375 25.2806 65.6037 25.2131 65.67C24.7894 66.085 24.7738 66.645 24.7469 67.22C24.7458 68.2575 25.1731 69.245 25.8844 69.995C26.7906 70.8512 27.7906 71.17 29.0094 71.1512C29.4594 71.1373 29.9219 71.0562 30.3094 70.8243C30.4088 70.7068 30.4088 70.7068 30.4944 70.5643C30.5286 70.5113 30.5625 70.4581 30.5981 70.4037C30.6344 70.3466 30.6706 70.2893 30.7081 70.2306C31.1256 69.5868 31.5769 68.9806 32.0581 68.3868C32.0858 68.3525 32.1134 68.3181 32.1419 68.2831C32.2575 68.14 32.3738 67.9981 32.4913 67.8562C32.5813 67.7468 32.6713 67.6375 32.76 67.5268C33.0325 67.19 33.3138 66.8643 33.6038 66.5456C33.7956 66.33 33.975 66.105 34.155 65.8768C34.2657 65.7462 34.375 65.6275 34.4969 65.5075C34.8263 65.1987 34.8263 65.1987 35.0369 64.8137C35.0276 64.6556 34.9877 64.5368 34.9319 64.3887L34.8569 64.1556C34.6794 63.625 34.4538 63.1556 34.1194 62.6993C34.0876 62.6553 34.0556 62.6112 34.0231 62.5662C33.52 61.935 32.8106 61.5725 32.0544 61.3225C31.9925 61.3018 31.9306 61.2812 31.8669 61.26C30.3606 61.1662 29.2669 61.7637 28.1794 62.76L28.1875 62.7625ZM36.5625 66.275C36.5388 66.314 36.5152 66.3531 36.4907 66.3931C36.3707 66.5843 36.2275 66.7562 36.0856 66.9312C36.0285 67.0043 35.9713 67.0775 35.9144 67.1512C35.675 67.4562 35.4269 67.7537 35.1769 68.0512C34.9456 68.3306 34.7194 68.6131 34.4956 68.9012C34.2438 69.225 33.9831 69.5387 33.7144 69.8512C33.5175 70.0818 33.3294 70.3168 33.145 70.5575C33.0175 70.7212 32.8869 70.8812 32.755 71.0412C32.6613 71.1556 32.5675 71.2706 32.4738 71.385C32.4306 71.4377 32.3875 71.4906 32.3431 71.545C32.3038 71.594 32.2644 71.6431 32.2238 71.6937L32.1181 71.8243C31.7394 72.3937 31.9088 73.7931 32.0163 74.4618C32.1831 75.2556 32.5531 75.9368 33.2288 76.3931C33.9538 76.8481 34.6788 77.0431 35.535 76.8868C36.4725 76.645 37.1788 75.9931 37.785 75.2618C37.8127 75.2287 37.8404 75.1956 37.8688 75.1612C38.675 74.1925 39.4063 73.1737 40.1313 72.1425C40.2607 71.9575 40.3913 71.7737 40.5213 71.5893C40.5857 71.4981 40.6494 71.4075 40.7138 71.3162C40.845 71.1287 40.9775 70.9437 41.1169 70.7618C41.1564 70.7097 41.1956 70.6575 41.2363 70.6037C41.2694 70.5618 41.3025 70.52 41.3369 70.4768C41.6888 69.7581 41.41 68.6456 41.1725 67.9206C40.8919 67.1331 40.4413 66.4643 39.6913 66.0768C38.71 65.6356 37.2413 65.2206 36.56 66.2737L36.5625 66.275ZM42.875 71.95C42.6919 72.1562 42.5394 72.3706 42.3863 72.6C42.3257 72.6893 42.265 72.7787 42.2044 72.8681C42.1741 72.9128 42.1438 72.9575 42.1125 73.0037C41.7044 73.6018 41.275 74.185 40.8375 74.76C40.8053 74.8022 40.7732 74.8443 40.74 74.8881C40.2225 75.5631 39.6838 76.2193 39.1275 76.8568C39.0475 76.9493 38.9682 77.0431 38.8894 77.1368C38.8447 77.1892 38.8 77.2412 38.7538 77.2956C38.6381 77.4643 38.5932 77.5537 38.5888 77.7581C38.6492 77.9162 38.71 78.0493 38.7919 78.1956C38.8145 78.2366 38.837 78.2775 38.86 78.32C39.585 79.5887 40.86 80.5762 42.2725 80.9825C42.4969 81.0313 42.7213 81.0251 42.9475 81.0266C42.9958 81.0279 43.0444 81.0292 43.0938 81.0305C43.4456 81.0329 43.7025 80.9636 44.025 80.8236C44.0115 80.7809 43.998 80.738 43.984 80.6942C43.5053 78.963 44.0441 77.1505 44.6653 75.5255C44.9484 74.788 45.2109 74.0317 44.9578 73.238C44.6665 72.6067 44.2703 72.2005 43.6265 71.9442C43.2359 71.7874 43.2359 71.7874 42.8765 71.9521L42.875 71.95ZM47.15 74.6375C47.1342 74.6949 47.1185 74.7525 47.1021 74.8118C47.0078 75.1412 46.899 75.4681 46.7909 75.7931C46.769 75.8593 46.7471 75.9256 46.7246 75.9937C46.624 76.2943 46.5221 76.5931 46.4046 76.8875C46.3866 76.9328 46.3686 76.9781 46.3501 77.025C46.302 77.1443 46.252 77.2631 46.2026 77.3812C46.1358 77.5712 46.1358 77.5712 46.1878 77.74C46.869 78.9087 48.094 79.6587 49.3628 80.04C50.719 80.3431 52.0315 80.0647 53.2753 79.5137C53.204 79.3 53.1584 79.2687 52.9821 79.1387C52.9312 79.1003 52.8803 79.0618 52.8278 79.0225C52.7691 78.9783 52.7103 78.9343 52.6503 78.8887C52.5103 78.78 52.3715 78.6706 52.2321 78.5606C52.1565 78.5009 52.0803 78.4412 52.0046 78.3818C51.9666 78.3519 51.9284 78.322 51.889 78.2912C51.7784 78.2043 51.6678 78.1175 51.5571 78.0306C51.1403 77.7037 50.7259 77.3743 50.3134 77.0431C50.0165 76.805 49.7178 76.57 49.4196 76.3368C49.1053 76.0906 48.7946 75.8406 48.4821 75.5931C48.224 75.3862 47.9646 75.1812 47.7009 74.98C47.6009 74.9018 47.5028 74.8212 47.4046 74.74C47.2859 74.63 47.2859 74.63 47.1509 74.6425L47.15 74.6375Z" fill="#749958"/>
<path d="M12.2501 27.875C12.5732 28.1481 12.8157 28.5625 12.8651 28.9875C12.8821 29.4425 12.8059 29.7812 12.5357 30.1562C12.1707 30.5181 11.7794 30.6737 11.2607 30.68C10.8351 30.6717 10.5544 30.5956 10.2419 30.31C9.92506 29.9725 9.78006 29.6162 9.76318 29.1537C9.78018 28.6912 9.92693 28.3412 10.2407 27.9975C10.7932 27.5087 11.6407 27.4562 12.2532 27.8737L12.2501 27.875Z" fill="#749958"/>
<path d="M85.5626 35C86.0463 35.315 86.4438 35.7938 86.6001 36.3563C86.6657 36.765 86.5882 37.1 86.3713 37.4563C86.0795 37.7856 85.7876 37.9944 85.3401 38.0419C84.8445 38.0506 84.4526 38.0334 84.0588 37.7063C83.7345 37.3738 83.5745 36.9938 83.5432 36.5375C83.5548 36.0131 83.7463 35.6438 84.1057 35.2625C84.5245 34.8988 85.0432 34.7506 85.5682 35.0013L85.5626 35Z" fill="#749958"/>
</svg>
