<svg width="50" height="50" viewBox="0 0 50 50" fill="none" xmlns="http://www.w3.org/2000/svg">
<g clip-path="url(#clip0_123_47)">
<path fill-rule="evenodd" clip-rule="evenodd" d="M36.9364 24.964C40.8165 22.3988 43.5185 17.6029 43.5185 13.3575C43.5185 7.2053 37.8443 0.454529 31.1331 0.454529C24.422 0.454529 18.9814 9.52639 18.9814 15.6786C21.7592 17.2727 21.7592 17.2727 21.7592 17.2727C21.7592 11.7498 25.9047 7.27271 31.0185 7.27271C36.1322 7.27271 40.2777 11.7498 40.2777 17.2727C40.2777 20.3651 38.9781 23.1297 36.9364 24.964Z" fill="#B45B3F"/>
<path d="M29.7517 13.2949C31.0563 10.8914 32.536 10.9937 33.6726 13.5661C34.8091 16.1384 34.5599 29.096 31.7878 39.8404C35.0007 4.61928 29.6069 7.56473 28.4524 31.4076C27.626 21.0388 28.4471 15.6985 29.7517 13.2949Z" fill="#D2A192"/>
<path fill-rule="evenodd" clip-rule="evenodd" d="M21.6432 30.1771C24.7898 28.7774 26.8519 26.437 26.8519 23.7862C26.8519 19.5008 21.4627 13.1818 14.8149 13.1818C8.167 13.1818 2.77783 19.5008 2.77783 23.7862C2.77783 26.437 4.83996 28.7774 7.98658 30.1771C6.19996 28.8583 5.09265 27.0259 5.09265 25C5.09265 20.9834 9.44542 17.7273 14.8149 17.7273C20.1843 17.7273 24.5371 20.9834 24.5371 25C24.5371 27.0259 23.4298 28.8583 21.6432 30.1771Z" fill="#B45B3F"/>
<path d="M11.1095 23.8647C12.2059 22.1605 13.9638 21.8861 15.7677 23.1377C17.5716 24.3893 18.395 27.8623 17.6776 34.9343C16.6129 19.1656 9.22842 18.7238 13.673 39.6982C10.8156 33.8046 10.0131 25.569 11.1095 23.8647Z" fill="#D2A192"/>
<path d="M4.99263 45.7927V45.4218C4.99263 44.7164 4.85189 44.2109 4.57041 43.9055C4.28893 43.5927 3.89264 43.4364 3.38153 43.4364C3.14449 43.4364 2.91486 43.4836 2.69264 43.5782C2.47042 43.6727 2.26671 43.8182 2.08153 44.0145C1.90375 44.2109 1.74449 44.4582 1.60375 44.7564C1.47042 45.0473 1.37042 45.3927 1.30375 45.7927H4.99263ZM1.24819 46.4909C1.24819 46.9709 1.29264 47.3964 1.38153 47.7673C1.47042 48.1309 1.59264 48.44 1.74819 48.6945C1.81486 48.8036 1.85931 48.8982 1.88153 48.9782C1.91116 49.0582 1.92597 49.1382 1.92597 49.2182C1.92597 49.3418 1.86671 49.4509 1.74819 49.5455C1.63708 49.6473 1.48523 49.6982 1.29264 49.6982C1.16671 49.6982 1.04079 49.6582 0.914861 49.5782C0.796343 49.4982 0.692639 49.3745 0.60375 49.2073C0.46301 48.9382 0.351897 48.6109 0.270416 48.2255C0.188934 47.8327 0.148193 47.4327 0.148193 47.0255C0.148193 46.4 0.240786 45.8255 0.425971 45.3018C0.618565 44.7709 0.877824 44.3164 1.20375 43.9382C1.53708 43.5527 1.91857 43.2545 2.34819 43.0436C2.78523 42.8254 3.24819 42.7164 3.73708 42.7164C4.54449 42.7164 5.14819 42.9164 5.54819 43.3164C5.94819 43.7091 6.14819 44.3236 6.14819 45.16V49.24C6.14819 49.3782 6.10004 49.4873 6.00375 49.5673C5.90745 49.6545 5.763 49.6982 5.57041 49.6982C5.37782 49.6982 5.23337 49.6545 5.13708 49.5673C5.04078 49.4873 4.99263 49.3782 4.99263 49.24V46.4909H1.24819ZM8.75972 46.5345C9.35972 45.5818 10.256 45.1055 11.4486 45.1055C12.1005 45.1055 12.5819 45.2327 12.8931 45.4873C13.2042 45.7418 13.3597 46.0764 13.3597 46.4909C13.3597 46.7164 13.319 46.96 13.2375 47.2218C13.156 47.4836 13.0412 47.7491 12.8931 48.0182C12.7523 48.2873 12.5782 48.5527 12.3708 48.8145C12.1634 49.0691 11.9375 49.3018 11.6931 49.5127C11.6116 49.5927 11.5375 49.6436 11.4708 49.6655C11.4116 49.6873 11.3449 49.6982 11.2708 49.6982C11.1745 49.6982 11.0893 49.6618 11.0153 49.5891C10.9486 49.5236 10.9153 49.4545 10.9153 49.3818C10.9153 49.3455 10.9227 49.3091 10.9375 49.2727C10.9523 49.2291 10.9893 49.1782 11.0486 49.12C11.2264 48.9382 11.3819 48.7455 11.5153 48.5418C11.656 48.3309 11.7708 48.1273 11.8597 47.9309C11.956 47.7273 12.0301 47.5345 12.0819 47.3527C12.1338 47.1709 12.1597 47.0073 12.1597 46.8618C12.1597 46.4836 12.0597 46.2036 11.8597 46.0218C11.6671 45.84 11.3931 45.7491 11.0375 45.7491C10.756 45.7491 10.4782 45.8109 10.2042 45.9345C9.9375 46.0582 9.70046 46.2327 9.49305 46.4582C9.28564 46.6764 9.11898 46.9382 8.99305 47.2436C8.86713 47.5418 8.80416 47.8691 8.80416 48.2255V49.24C8.80416 49.3636 8.75972 49.4655 8.67083 49.5455C8.58935 49.6327 8.44861 49.6764 8.24861 49.6764C8.05601 49.6764 7.91527 49.6327 7.82638 49.5455C7.7449 49.4655 7.70416 49.3636 7.70416 49.24V45.64C7.70416 45.5164 7.7449 45.4145 7.82638 45.3345C7.90787 45.2473 8.0412 45.2036 8.22638 45.2036C8.41898 45.2036 8.55601 45.2473 8.6375 45.3345C8.71898 45.4145 8.75972 45.5164 8.75972 45.64V46.5345ZM18.0809 45.7055C17.9994 45.6909 17.9217 45.68 17.8476 45.6727C17.7735 45.6655 17.6735 45.6618 17.5476 45.6618C17.2809 45.6618 17.0254 45.72 16.7809 45.8364C16.5365 45.9454 16.318 46.1018 16.1254 46.3055C15.9328 46.5018 15.7772 46.7345 15.6587 47.0036C15.5476 47.2727 15.492 47.5636 15.492 47.8764C15.492 48.2109 15.5846 48.4764 15.7698 48.6727C15.955 48.8618 16.1772 48.9564 16.4365 48.9564C16.6735 48.9564 16.9254 48.9164 17.192 48.8364C17.4587 48.7564 17.7439 48.6218 18.0476 48.4327C18.0624 48.28 18.0698 48.1236 18.0698 47.9636C18.0772 47.7964 18.0809 47.6109 18.0809 47.4073V45.7055ZM19.1698 47.9309C19.1698 48.0327 19.1772 48.1164 19.192 48.1818C19.2068 48.24 19.2143 48.2909 19.2143 48.3345C19.2143 48.3927 19.1883 48.4509 19.1365 48.5091C19.092 48.56 18.9957 48.64 18.8476 48.7491C18.6624 48.8873 18.4587 49.0145 18.2365 49.1309C18.0143 49.2473 17.7883 49.3491 17.5587 49.4364C17.3291 49.5164 17.0994 49.5782 16.8698 49.6218C16.6476 49.6727 16.4402 49.6982 16.2476 49.6982C15.6106 49.6982 15.1365 49.5673 14.8254 49.3055C14.5143 49.0364 14.3587 48.6727 14.3587 48.2145C14.3587 47.8145 14.4513 47.4291 14.6365 47.0582C14.8291 46.68 15.0772 46.3491 15.3809 46.0655C15.6846 45.7745 16.0254 45.5418 16.4031 45.3673C16.7883 45.1927 17.1698 45.1055 17.5476 45.1055C17.6513 45.1055 17.7476 45.1091 17.8365 45.1164C17.9328 45.1164 18.0106 45.12 18.0698 45.1273V42.3236C18.0698 42.2 18.1106 42.0982 18.192 42.0182C18.2809 41.9309 18.4217 41.8873 18.6143 41.8873C18.8143 41.8873 18.955 41.9309 19.0365 42.0182C19.1254 42.0982 19.1698 42.2 19.1698 42.3236V47.9309ZM21.8472 49.2182C21.8472 49.3418 21.8028 49.4473 21.7139 49.5345C21.625 49.6145 21.4806 49.6545 21.2806 49.6545C21.088 49.6545 20.9472 49.6145 20.8583 49.5345C20.7694 49.4473 20.725 49.3418 20.725 49.2182V45.5855C20.725 45.4618 20.7694 45.36 20.8583 45.28C20.9472 45.1927 21.088 45.1491 21.2806 45.1491C21.4806 45.1491 21.625 45.1927 21.7139 45.28C21.8028 45.36 21.8472 45.4618 21.8472 45.5855V49.2182ZM21.2806 44.1564C21.0583 44.1564 20.8954 44.1127 20.7917 44.0255C20.688 43.9309 20.6361 43.8218 20.6361 43.6982V43.2836C20.6361 43.16 20.688 43.0545 20.7917 42.9673C20.8954 42.8727 21.0583 42.8255 21.2806 42.8255C21.4954 42.8255 21.6546 42.8727 21.7583 42.9673C21.8694 43.0545 21.925 43.16 21.925 43.2836V43.6982C21.925 43.8218 21.8694 43.9309 21.7583 44.0255C21.6546 44.1127 21.4954 44.1564 21.2806 44.1564ZM26.7363 44.9527C26.7363 44.6182 26.7585 44.3345 26.803 44.1018C26.8548 43.8691 26.94 43.6764 27.0585 43.5236C27.1844 43.3636 27.3474 43.24 27.5474 43.1527C27.7548 43.0582 28.0178 42.9782 28.3363 42.9127C28.4696 42.8836 28.6104 42.8582 28.7585 42.8364C28.9067 42.8145 29.0511 42.7964 29.1918 42.7818C29.3326 42.7673 29.4622 42.7564 29.5807 42.7491C29.7067 42.7345 29.8067 42.7273 29.8807 42.7273C30.34 42.7273 30.7178 42.7491 31.0141 42.7927C31.3104 42.8291 31.5437 42.8836 31.7141 42.9564C31.8844 43.0291 32.003 43.1164 32.0696 43.2182C32.1363 43.32 32.1696 43.4291 32.1696 43.5455C32.1696 43.7127 32.1141 43.8473 32.003 43.9491C31.8918 44.0509 31.7622 44.1018 31.6141 44.1018C31.5104 44.1018 31.403 44.0836 31.2918 44.0473C31.1881 44.0036 31.1067 43.9527 31.0474 43.8945C30.9659 43.8218 30.8844 43.7564 30.803 43.6982C30.7215 43.64 30.6215 43.5927 30.503 43.5564C30.3918 43.5127 30.2585 43.4836 30.103 43.4691C29.9474 43.4473 29.7622 43.4364 29.5474 43.4364C29.4956 43.4364 29.4289 43.44 29.3474 43.4473C29.2733 43.4545 29.1918 43.4618 29.103 43.4691C29.0215 43.4764 28.9437 43.4873 28.8696 43.5018C28.7956 43.5164 28.7363 43.5273 28.6918 43.5345C28.5141 43.5782 28.3696 43.6254 28.2585 43.6764C28.1548 43.72 28.0733 43.7854 28.0141 43.8727C27.9622 43.96 27.9289 44.0764 27.9141 44.2218C27.8993 44.3673 27.8918 44.56 27.8918 44.8V45.7818H30.2807C30.3844 45.7818 30.4659 45.8145 30.5252 45.88C30.5844 45.9454 30.6141 46.0291 30.6141 46.1309C30.6141 46.2327 30.5844 46.3164 30.5252 46.3818C30.4659 46.4473 30.3844 46.48 30.2807 46.48H27.8918V49.24C27.8918 49.3782 27.8437 49.4873 27.7474 49.5673C27.6511 49.6545 27.5067 49.6982 27.3141 49.6982C27.1215 49.6982 26.977 49.6545 26.8807 49.5673C26.7844 49.4873 26.7363 49.3782 26.7363 49.24V44.9527ZM35.6725 45.1055C36.354 45.1055 36.8429 45.2291 37.1392 45.4764C37.4429 45.7236 37.5947 46.0473 37.5947 46.4473C37.5947 46.8182 37.491 47.1964 37.2836 47.5818C37.0762 47.96 36.7984 48.3091 36.4503 48.6291C36.1021 48.9418 35.6947 49.2 35.228 49.4036C34.7614 49.6 34.2688 49.6982 33.7503 49.6982C33.0762 49.6982 32.5873 49.5745 32.2836 49.3273C31.9873 49.0727 31.8392 48.7455 31.8392 48.3455C31.8392 47.9745 31.9429 47.5964 32.1503 47.2109C32.3577 46.8254 32.6355 46.4764 32.9836 46.1636C33.3392 45.8509 33.7466 45.5964 34.2058 45.4C34.6725 45.2036 35.1614 45.1055 35.6725 45.1055ZM35.2058 45.7927C34.8947 45.7927 34.6058 45.8509 34.3392 45.9673C34.0799 46.0836 33.854 46.24 33.6614 46.4364C33.4688 46.6327 33.3169 46.8582 33.2058 47.1127C33.0947 47.3673 33.0392 47.6291 33.0392 47.8982C33.0392 48.2473 33.1429 48.52 33.3503 48.7164C33.5577 48.9127 33.8392 49.0109 34.1947 49.0109C34.4984 49.0109 34.7836 48.9527 35.0503 48.8364C35.3169 48.7127 35.5503 48.5527 35.7503 48.3564C35.9503 48.16 36.1095 47.9345 36.2281 47.68C36.3466 47.4255 36.4058 47.16 36.4058 46.8836C36.4058 46.5564 36.2984 46.2945 36.0836 46.0982C35.8762 45.8945 35.5836 45.7927 35.2058 45.7927ZM42.3131 45.1055C42.9946 45.1055 43.4835 45.2291 43.7798 45.4764C44.0835 45.7236 44.2354 46.0473 44.2354 46.4473C44.2354 46.8182 44.1317 47.1964 43.9243 47.5818C43.7168 47.96 43.4391 48.3091 43.0909 48.6291C42.7428 48.9418 42.3354 49.2 41.8687 49.4036C41.402 49.6 40.9094 49.6982 40.3909 49.6982C39.7168 49.6982 39.228 49.5745 38.9243 49.3273C38.628 49.0727 38.4798 48.7455 38.4798 48.3455C38.4798 47.9745 38.5835 47.5964 38.7909 47.2109C38.9983 46.8254 39.2761 46.4764 39.6243 46.1636C39.9798 45.8509 40.3872 45.5964 40.8465 45.4C41.3131 45.2036 41.802 45.1055 42.3131 45.1055ZM41.8465 45.7927C41.5354 45.7927 41.2465 45.8509 40.9798 45.9673C40.7205 46.0836 40.4946 46.24 40.302 46.4364C40.1094 46.6327 39.9576 46.8582 39.8465 47.1127C39.7354 47.3673 39.6798 47.6291 39.6798 47.8982C39.6798 48.2473 39.7835 48.52 39.9909 48.7164C40.1983 48.9127 40.4798 49.0109 40.8354 49.0109C41.1391 49.0109 41.4243 48.9527 41.6909 48.8364C41.9576 48.7127 42.1909 48.5527 42.3909 48.3564C42.5909 48.16 42.7502 47.9345 42.8687 47.68C42.9872 47.4255 43.0465 47.16 43.0465 46.8836C43.0465 46.5564 42.9391 46.2945 42.7243 46.0982C42.5168 45.8945 42.2243 45.7927 41.8465 45.7927ZM48.8426 45.7055C48.7612 45.6909 48.6834 45.68 48.6093 45.6727C48.5352 45.6655 48.4352 45.6618 48.3093 45.6618C48.0426 45.6618 47.7871 45.72 47.5426 45.8364C47.2982 45.9454 47.0797 46.1018 46.8871 46.3055C46.6945 46.5018 46.5389 46.7345 46.4204 47.0036C46.3093 47.2727 46.2537 47.5636 46.2537 47.8764C46.2537 48.2109 46.3463 48.4764 46.5315 48.6727C46.7167 48.8618 46.9389 48.9564 47.1982 48.9564C47.4352 48.9564 47.6871 48.9164 47.9537 48.8364C48.2204 48.7564 48.5056 48.6218 48.8093 48.4327C48.8241 48.28 48.8315 48.1236 48.8315 47.9636C48.8389 47.7964 48.8426 47.6109 48.8426 47.4073V45.7055ZM49.9315 47.9309C49.9315 48.0327 49.9389 48.1164 49.9537 48.1818C49.9686 48.24 49.976 48.2909 49.976 48.3345C49.976 48.3927 49.95 48.4509 49.8982 48.5091C49.8537 48.56 49.7574 48.64 49.6093 48.7491C49.4241 48.8873 49.2204 49.0145 48.9982 49.1309C48.776 49.2473 48.55 49.3491 48.3204 49.4364C48.0908 49.5164 47.8612 49.5782 47.6315 49.6218C47.4093 49.6727 47.2019 49.6982 47.0093 49.6982C46.3723 49.6982 45.8982 49.5673 45.5871 49.3055C45.276 49.0364 45.1204 48.6727 45.1204 48.2145C45.1204 47.8145 45.213 47.4291 45.3982 47.0582C45.5908 46.68 45.8389 46.3491 46.1426 46.0655C46.4463 45.7745 46.7871 45.5418 47.1649 45.3673C47.55 45.1927 47.9315 45.1055 48.3093 45.1055C48.413 45.1055 48.5093 45.1091 48.5982 45.1164C48.6945 45.1164 48.7723 45.12 48.8315 45.1273V42.3236C48.8315 42.2 48.8723 42.0982 48.9537 42.0182C49.0426 41.9309 49.1834 41.8873 49.376 41.8873C49.576 41.8873 49.7167 41.9309 49.7982 42.0182C49.8871 42.0982 49.9315 42.2 49.9315 42.3236V47.9309Z" fill="#749958"/>
<path d="M36.3426 5.90911C36.7262 5.90911 37.0371 5.60385 37.0371 5.22729C37.0371 4.85073 36.7262 4.54547 36.3426 4.54547C35.9591 4.54547 35.6482 4.85073 35.6482 5.22729C35.6482 5.60385 35.9591 5.90911 36.3426 5.90911Z" fill="#98513B"/>
<path d="M17.3612 16.3636C17.7447 16.3636 18.0556 16.0584 18.0556 15.6818C18.0556 15.3053 17.7447 15 17.3612 15C16.9777 15 16.6667 15.3053 16.6667 15.6818C16.6667 16.0584 16.9777 16.3636 17.3612 16.3636Z" fill="#98513B"/>
<path d="M25.0001 7.27274C25.2558 7.27274 25.463 7.06923 25.463 6.81819C25.463 6.56715 25.2558 6.36365 25.0001 6.36365C24.7444 6.36365 24.5371 6.56715 24.5371 6.81819C24.5371 7.06923 24.7444 7.27274 25.0001 7.27274Z" fill="#98513B"/>
<path d="M11.574 16.3636C11.8297 16.3636 12.037 16.1601 12.037 15.9091C12.037 15.658 11.8297 15.4545 11.574 15.4545C11.3184 15.4545 11.1111 15.658 11.1111 15.9091C11.1111 16.1601 11.3184 16.3636 11.574 16.3636Z" fill="#98513B"/>
<path d="M6.94441 19.5454C7.2001 19.5454 7.40737 19.3419 7.40737 19.0909C7.40737 18.8399 7.2001 18.6364 6.94441 18.6364C6.68872 18.6364 6.48145 18.8399 6.48145 19.0909C6.48145 19.3419 6.68872 19.5454 6.94441 19.5454Z" fill="#98513B"/>
<path d="M30.0927 4.09089C30.604 4.09089 31.0186 3.68387 31.0186 3.1818C31.0186 2.67972 30.604 2.27271 30.0927 2.27271C29.5813 2.27271 29.1667 2.67972 29.1667 3.1818C29.1667 3.68387 29.5813 4.09089 30.0927 4.09089Z" fill="#98513B"/>
<path d="M39.3519 9.99997C39.6076 9.99997 39.8148 9.79647 39.8148 9.54543C39.8148 9.29439 39.6076 9.09088 39.3519 9.09088C39.0962 9.09088 38.8889 9.29439 38.8889 9.54543C38.8889 9.79647 39.0962 9.99997 39.3519 9.99997Z" fill="#98513B"/>
</g>
<defs>
<clipPath id="clip0_123_47">
<rect width="50" height="50" fill="white"/>
</clipPath>
</defs>
</svg>
