<svg width="50" height="50" viewBox="0 0 50 50" fill="none" xmlns="http://www.w3.org/2000/svg">
<g clip-path="url(#clip0_243_173)">
<path fill-rule="evenodd" clip-rule="evenodd" d="M36.9364 24.964C40.8165 22.3988 43.5185 17.6029 43.5185 13.3575C43.5185 7.2053 37.8443 0.454529 31.1331 0.454529C24.422 0.454529 18.9814 9.52639 18.9814 15.6786C21.7592 17.2727 21.7592 17.2727 21.7592 17.2727C21.7592 11.7498 25.9047 7.27271 31.0185 7.27271C36.1322 7.27271 40.2777 11.7498 40.2777 17.2727C40.2777 20.3651 38.9781 23.1297 36.9364 24.964Z" fill="#B45B3F"/>
<path d="M29.7517 13.2949C31.0563 10.8914 32.536 10.9937 33.6726 13.5661C34.8091 16.1384 34.5599 29.096 31.7878 39.8404C35.0007 4.61928 29.6069 7.56473 28.4524 31.4076C27.626 21.0388 28.4471 15.6985 29.7517 13.2949Z" fill="#D2A192"/>
<path fill-rule="evenodd" clip-rule="evenodd" d="M21.6432 30.1771C24.7898 28.7774 26.8519 26.437 26.8519 23.7862C26.8519 19.5008 21.4627 13.1818 14.8149 13.1818C8.167 13.1818 2.77783 19.5008 2.77783 23.7862C2.77783 26.437 4.83996 28.7774 7.98658 30.1771C6.19996 28.8583 5.09265 27.0259 5.09265 25C5.09265 20.9834 9.44542 17.7273 14.8149 17.7273C20.1843 17.7273 24.5371 20.9834 24.5371 25C24.5371 27.0259 23.4298 28.8583 21.6432 30.1771Z" fill="#B45B3F"/>
<path d="M11.1097 23.8647C12.2061 22.1605 13.9641 21.8861 15.768 23.1377C17.5719 24.3893 18.3953 27.8623 17.6779 34.9343C16.6131 19.1656 9.22867 18.7238 13.6733 39.6982C10.8159 33.8046 10.0134 25.569 11.1097 23.8647Z" fill="#D2A192"/>
<path d="M4.99239 45.7927V45.4218C4.99239 44.7164 4.85165 44.2109 4.57017 43.9055C4.28869 43.5927 3.8924 43.4364 3.38128 43.4364C3.14425 43.4364 2.91462 43.4836 2.6924 43.5782C2.47017 43.6727 2.26647 43.8182 2.08128 44.0145C1.90351 44.2109 1.74425 44.4582 1.60351 44.7564C1.47017 45.0473 1.37017 45.3927 1.30351 45.7927H4.99239ZM1.24795 46.4909C1.24795 46.9709 1.29239 47.3964 1.38128 47.7673C1.47017 48.1309 1.5924 48.44 1.74795 48.6945C1.81462 48.8036 1.85906 48.8982 1.88128 48.9782C1.91091 49.0582 1.92573 49.1382 1.92573 49.2182C1.92573 49.3418 1.86647 49.4509 1.74795 49.5455C1.63684 49.6473 1.48499 49.6982 1.2924 49.6982C1.16647 49.6982 1.04054 49.6582 0.914617 49.5782C0.796099 49.4982 0.692395 49.3745 0.603506 49.2073C0.462765 48.9382 0.351653 48.6109 0.270171 48.2255C0.18869 47.8327 0.147949 47.4327 0.147949 47.0255C0.147949 46.4 0.240542 45.8255 0.425727 45.3018C0.618321 44.7709 0.87758 44.3164 1.20351 43.9382C1.53684 43.5527 1.91832 43.2545 2.34795 43.0436C2.78499 42.8254 3.24795 42.7164 3.73684 42.7164C4.54424 42.7164 5.14795 42.9164 5.54795 43.3164C5.94795 43.7091 6.14795 44.3236 6.14795 45.16V49.24C6.14795 49.3782 6.0998 49.4873 6.0035 49.5673C5.90721 49.6545 5.76276 49.6982 5.57017 49.6982C5.37758 49.6982 5.23313 49.6545 5.13683 49.5673C5.04054 49.4873 4.99239 49.3782 4.99239 49.24V46.4909H1.24795ZM8.75947 46.5345C9.35947 45.5818 10.2558 45.1055 11.4484 45.1055C12.1002 45.1055 12.5817 45.2327 12.8928 45.4873C13.2039 45.7418 13.3595 46.0764 13.3595 46.4909C13.3595 46.7164 13.3187 46.96 13.2373 47.2218C13.1558 47.4836 13.041 47.7491 12.8928 48.0182C12.7521 48.2873 12.578 48.5527 12.3706 48.8145C12.1632 49.0691 11.9373 49.3018 11.6928 49.5127C11.6113 49.5927 11.5373 49.6436 11.4706 49.6655C11.4113 49.6873 11.3447 49.6982 11.2706 49.6982C11.1743 49.6982 11.0891 49.6618 11.015 49.5891C10.9484 49.5236 10.915 49.4545 10.915 49.3818C10.915 49.3455 10.9224 49.3091 10.9373 49.2727C10.9521 49.2291 10.9891 49.1782 11.0484 49.12C11.2261 48.9382 11.3817 48.7455 11.515 48.5418C11.6558 48.3309 11.7706 48.1273 11.8595 47.9309C11.9558 47.7273 12.0298 47.5345 12.0817 47.3527C12.1335 47.1709 12.1595 47.0073 12.1595 46.8618C12.1595 46.4836 12.0595 46.2036 11.8595 46.0218C11.6669 45.84 11.3928 45.7491 11.0373 45.7491C10.7558 45.7491 10.478 45.8109 10.2039 45.9345C9.93725 46.0582 9.70021 46.2327 9.49281 46.4582C9.2854 46.6764 9.11873 46.9382 8.99281 47.2436C8.86688 47.5418 8.80392 47.8691 8.80392 48.2255V49.24C8.80392 49.3636 8.75947 49.4655 8.67058 49.5455C8.5891 49.6327 8.44836 49.6764 8.24836 49.6764C8.05577 49.6764 7.91503 49.6327 7.82614 49.5455C7.74466 49.4655 7.70392 49.3636 7.70392 49.24V45.64C7.70392 45.5164 7.74466 45.4145 7.82614 45.3345C7.90762 45.2473 8.04095 45.2036 8.22614 45.2036C8.41873 45.2036 8.55577 45.2473 8.63725 45.3345C8.71873 45.4145 8.75947 45.5164 8.75947 45.64V46.5345ZM18.0807 45.7055C17.9992 45.6909 17.9214 45.68 17.8473 45.6727C17.7733 45.6655 17.6733 45.6618 17.5473 45.6618C17.2807 45.6618 17.0251 45.72 16.7807 45.8364C16.5362 45.9454 16.3177 46.1018 16.1251 46.3055C15.9325 46.5018 15.777 46.7345 15.6585 47.0036C15.5473 47.2727 15.4918 47.5636 15.4918 47.8764C15.4918 48.2109 15.5844 48.4764 15.7696 48.6727C15.9548 48.8618 16.177 48.9564 16.4362 48.9564C16.6733 48.9564 16.9251 48.9164 17.1918 48.8364C17.4585 48.7564 17.7436 48.6218 18.0473 48.4327C18.0622 48.28 18.0696 48.1236 18.0696 47.9636C18.077 47.7964 18.0807 47.6109 18.0807 47.4073V45.7055ZM19.1696 47.9309C19.1696 48.0327 19.177 48.1164 19.1918 48.1818C19.2066 48.24 19.214 48.2909 19.214 48.3345C19.214 48.3927 19.1881 48.4509 19.1362 48.5091C19.0918 48.56 18.9955 48.64 18.8473 48.7491C18.6622 48.8873 18.4585 49.0145 18.2362 49.1309C18.014 49.2473 17.7881 49.3491 17.5585 49.4364C17.3288 49.5164 17.0992 49.5782 16.8696 49.6218C16.6473 49.6727 16.4399 49.6982 16.2473 49.6982C15.6103 49.6982 15.1362 49.5673 14.8251 49.3055C14.514 49.0364 14.3585 48.6727 14.3585 48.2145C14.3585 47.8145 14.451 47.4291 14.6362 47.0582C14.8288 46.68 15.077 46.3491 15.3807 46.0655C15.6844 45.7745 16.0251 45.5418 16.4029 45.3673C16.7881 45.1927 17.1696 45.1055 17.5473 45.1055C17.651 45.1055 17.7473 45.1091 17.8362 45.1164C17.9325 45.1164 18.0103 45.12 18.0696 45.1273V42.3236C18.0696 42.2 18.1103 42.0982 18.1918 42.0182C18.2807 41.9309 18.4214 41.8873 18.614 41.8873C18.814 41.8873 18.9548 41.9309 19.0362 42.0182C19.1251 42.0982 19.1696 42.2 19.1696 42.3236V47.9309ZM21.847 49.2182C21.847 49.3418 21.8025 49.4473 21.7136 49.5345C21.6248 49.6145 21.4803 49.6545 21.2803 49.6545C21.0877 49.6545 20.947 49.6145 20.8581 49.5345C20.7692 49.4473 20.7248 49.3418 20.7248 49.2182V45.5855C20.7248 45.4618 20.7692 45.36 20.8581 45.28C20.947 45.1927 21.0877 45.1491 21.2803 45.1491C21.4803 45.1491 21.6248 45.1927 21.7136 45.28C21.8025 45.36 21.847 45.4618 21.847 45.5855V49.2182ZM21.2803 44.1564C21.0581 44.1564 20.8951 44.1127 20.7914 44.0255C20.6877 43.9309 20.6359 43.8218 20.6359 43.6982V43.2836C20.6359 43.16 20.6877 43.0545 20.7914 42.9673C20.8951 42.8727 21.0581 42.8255 21.2803 42.8255C21.4951 42.8255 21.6544 42.8727 21.7581 42.9673C21.8692 43.0545 21.9248 43.16 21.9248 43.2836V43.6982C21.9248 43.8218 21.8692 43.9309 21.7581 44.0255C21.6544 44.1127 21.4951 44.1564 21.2803 44.1564ZM26.736 44.9527C26.736 44.6182 26.7583 44.3345 26.8027 44.1018C26.8546 43.8691 26.9398 43.6764 27.0583 43.5236C27.1842 43.3636 27.3472 43.24 27.5472 43.1527C27.7546 43.0582 28.0175 42.9782 28.336 42.9127C28.4694 42.8836 28.6101 42.8582 28.7583 42.8364C28.9064 42.8145 29.0509 42.7964 29.1916 42.7818C29.3323 42.7673 29.462 42.7564 29.5805 42.7491C29.7064 42.7345 29.8064 42.7273 29.8805 42.7273C30.3397 42.7273 30.7175 42.7491 31.0138 42.7927C31.3101 42.8291 31.5435 42.8836 31.7138 42.9564C31.8842 43.0291 32.0027 43.1164 32.0694 43.2182C32.136 43.32 32.1694 43.4291 32.1694 43.5455C32.1694 43.7127 32.1138 43.8473 32.0027 43.9491C31.8916 44.0509 31.762 44.1018 31.6138 44.1018C31.5101 44.1018 31.4027 44.0836 31.2916 44.0473C31.1879 44.0036 31.1064 43.9527 31.0472 43.8945C30.9657 43.8218 30.8842 43.7564 30.8027 43.6982C30.7212 43.64 30.6212 43.5927 30.5027 43.5564C30.3916 43.5127 30.2583 43.4836 30.1027 43.4691C29.9472 43.4473 29.762 43.4364 29.5472 43.4364C29.4953 43.4364 29.4286 43.44 29.3472 43.4473C29.2731 43.4545 29.1916 43.4618 29.1027 43.4691C29.0212 43.4764 28.9435 43.4873 28.8694 43.5018C28.7953 43.5164 28.736 43.5273 28.6916 43.5345C28.5138 43.5782 28.3694 43.6254 28.2583 43.6764C28.1546 43.72 28.0731 43.7854 28.0138 43.8727C27.962 43.96 27.9286 44.0764 27.9138 44.2218C27.899 44.3673 27.8916 44.56 27.8916 44.8V45.7818H30.2805C30.3842 45.7818 30.4657 45.8145 30.5249 45.88C30.5842 45.9454 30.6138 46.0291 30.6138 46.1309C30.6138 46.2327 30.5842 46.3164 30.5249 46.3818C30.4657 46.4473 30.3842 46.48 30.2805 46.48H27.8916V49.24C27.8916 49.3782 27.8435 49.4873 27.7472 49.5673C27.6509 49.6545 27.5064 49.6982 27.3138 49.6982C27.1212 49.6982 26.9768 49.6545 26.8805 49.5673C26.7842 49.4873 26.736 49.3782 26.736 49.24V44.9527ZM35.6722 45.1055C36.3537 45.1055 36.8426 45.2291 37.1389 45.4764C37.4426 45.7236 37.5945 46.0473 37.5945 46.4473C37.5945 46.8182 37.4908 47.1964 37.2834 47.5818C37.076 47.96 36.7982 48.3091 36.45 48.6291C36.1019 48.9418 35.6945 49.2 35.2278 49.4036C34.7611 49.6 34.2685 49.6982 33.75 49.6982C33.076 49.6982 32.5871 49.5745 32.2834 49.3273C31.9871 49.0727 31.8389 48.7455 31.8389 48.3455C31.8389 47.9745 31.9426 47.5964 32.15 47.2109C32.3574 46.8254 32.6352 46.4764 32.9834 46.1636C33.3389 45.8509 33.7463 45.5964 34.2056 45.4C34.6723 45.2036 35.1611 45.1055 35.6722 45.1055ZM35.2056 45.7927C34.8945 45.7927 34.6056 45.8509 34.3389 45.9673C34.0797 46.0836 33.8537 46.24 33.6611 46.4364C33.4685 46.6327 33.3167 46.8582 33.2056 47.1127C33.0945 47.3673 33.0389 47.6291 33.0389 47.8982C33.0389 48.2473 33.1426 48.52 33.35 48.7164C33.5574 48.9127 33.8389 49.0109 34.1945 49.0109C34.4982 49.0109 34.7834 48.9527 35.05 48.8364C35.3167 48.7127 35.55 48.5527 35.75 48.3564C35.95 48.16 36.1093 47.9345 36.2278 47.68C36.3463 47.4255 36.4056 47.16 36.4056 46.8836C36.4056 46.5564 36.2982 46.2945 36.0834 46.0982C35.876 45.8945 35.5834 45.7927 35.2056 45.7927ZM42.3129 45.1055C42.9944 45.1055 43.4833 45.2291 43.7796 45.4764C44.0833 45.7236 44.2351 46.0473 44.2351 46.4473C44.2351 46.8182 44.1314 47.1964 43.924 47.5818C43.7166 47.96 43.4388 48.3091 43.0907 48.6291C42.7425 48.9418 42.3351 49.2 41.8685 49.4036C41.4018 49.6 40.9092 49.6982 40.3907 49.6982C39.7166 49.6982 39.2277 49.5745 38.924 49.3273C38.6277 49.0727 38.4796 48.7455 38.4796 48.3455C38.4796 47.9745 38.5833 47.5964 38.7907 47.2109C38.9981 46.8254 39.2759 46.4764 39.624 46.1636C39.9796 45.8509 40.387 45.5964 40.8462 45.4C41.3129 45.2036 41.8018 45.1055 42.3129 45.1055ZM41.8462 45.7927C41.5351 45.7927 41.2462 45.8509 40.9796 45.9673C40.7203 46.0836 40.4944 46.24 40.3018 46.4364C40.1092 46.6327 39.9573 46.8582 39.8462 47.1127C39.7351 47.3673 39.6796 47.6291 39.6796 47.8982C39.6796 48.2473 39.7833 48.52 39.9907 48.7164C40.1981 48.9127 40.4796 49.0109 40.8351 49.0109C41.1388 49.0109 41.424 48.9527 41.6907 48.8364C41.9573 48.7127 42.1907 48.5527 42.3907 48.3564C42.5907 48.16 42.7499 47.9345 42.8685 47.68C42.987 47.4255 43.0462 47.16 43.0462 46.8836C43.0462 46.5564 42.9388 46.2945 42.724 46.0982C42.5166 45.8945 42.224 45.7927 41.8462 45.7927ZM48.8424 45.7055C48.7609 45.6909 48.6831 45.68 48.6091 45.6727C48.535 45.6655 48.435 45.6618 48.3091 45.6618C48.0424 45.6618 47.7868 45.72 47.5424 45.8364C47.2979 45.9454 47.0794 46.1018 46.8868 46.3055C46.6942 46.5018 46.5387 46.7345 46.4202 47.0036C46.3091 47.2727 46.2535 47.5636 46.2535 47.8764C46.2535 48.2109 46.3461 48.4764 46.5313 48.6727C46.7165 48.8618 46.9387 48.9564 47.1979 48.9564C47.435 48.9564 47.6868 48.9164 47.9535 48.8364C48.2202 48.7564 48.5054 48.6218 48.8091 48.4327C48.8239 48.28 48.8313 48.1236 48.8313 47.9636C48.8387 47.7964 48.8424 47.6109 48.8424 47.4073V45.7055ZM49.9313 47.9309C49.9313 48.0327 49.9387 48.1164 49.9535 48.1818C49.9683 48.24 49.9757 48.2909 49.9757 48.3345C49.9757 48.3927 49.9498 48.4509 49.8979 48.5091C49.8535 48.56 49.7572 48.64 49.6091 48.7491C49.4239 48.8873 49.2202 49.0145 48.9979 49.1309C48.7757 49.2473 48.5498 49.3491 48.3202 49.4364C48.0905 49.5164 47.8609 49.5782 47.6313 49.6218C47.4091 49.6727 47.2016 49.6982 47.0091 49.6982C46.372 49.6982 45.8979 49.5673 45.5868 49.3055C45.2757 49.0364 45.1202 48.6727 45.1202 48.2145C45.1202 47.8145 45.2128 47.4291 45.3979 47.0582C45.5905 46.68 45.8387 46.3491 46.1424 46.0655C46.4461 45.7745 46.7868 45.5418 47.1646 45.3673C47.5498 45.1927 47.9313 45.1055 48.3091 45.1055C48.4128 45.1055 48.5091 45.1091 48.5979 45.1164C48.6942 45.1164 48.772 45.12 48.8313 45.1273V42.3236C48.8313 42.2 48.872 42.0982 48.9535 42.0182C49.0424 41.9309 49.1831 41.8873 49.3757 41.8873C49.5757 41.8873 49.7165 41.9309 49.7979 42.0182C49.8868 42.0982 49.9313 42.2 49.9313 42.3236V47.9309Z" fill="white"/>
<path d="M36.3424 5.90911C36.7259 5.90911 37.0368 5.60385 37.0368 5.22729C37.0368 4.85073 36.7259 4.54547 36.3424 4.54547C35.9589 4.54547 35.6479 4.85073 35.6479 5.22729C35.6479 5.60385 35.9589 5.90911 36.3424 5.90911Z" fill="#98513B"/>
<path d="M17.3609 16.3636C17.7445 16.3636 18.0554 16.0584 18.0554 15.6818C18.0554 15.3053 17.7445 15 17.3609 15C16.9774 15 16.6665 15.3053 16.6665 15.6818C16.6665 16.0584 16.9774 16.3636 17.3609 16.3636Z" fill="#98513B"/>
<path d="M25.0001 7.27274C25.2558 7.27274 25.463 7.06923 25.463 6.81819C25.463 6.56715 25.2558 6.36365 25.0001 6.36365C24.7444 6.36365 24.5371 6.56715 24.5371 6.81819C24.5371 7.06923 24.7444 7.27274 25.0001 7.27274Z" fill="#98513B"/>
<path d="M11.5743 16.3636C11.83 16.3636 12.0373 16.1601 12.0373 15.9091C12.0373 15.658 11.83 15.4545 11.5743 15.4545C11.3186 15.4545 11.1113 15.658 11.1113 15.9091C11.1113 16.1601 11.3186 16.3636 11.5743 16.3636Z" fill="#98513B"/>
<path d="M6.94441 19.5454C7.2001 19.5454 7.40737 19.3419 7.40737 19.0909C7.40737 18.8399 7.2001 18.6364 6.94441 18.6364C6.68872 18.6364 6.48145 18.8399 6.48145 19.0909C6.48145 19.3419 6.68872 19.5454 6.94441 19.5454Z" fill="#98513B"/>
<path d="M30.0924 4.09089C30.6038 4.09089 31.0184 3.68387 31.0184 3.1818C31.0184 2.67972 30.6038 2.27271 30.0924 2.27271C29.5811 2.27271 29.1665 2.67972 29.1665 3.1818C29.1665 3.68387 29.5811 4.09089 30.0924 4.09089Z" fill="#98513B"/>
<path d="M39.3516 9.99997C39.6073 9.99997 39.8146 9.79647 39.8146 9.54543C39.8146 9.29439 39.6073 9.09088 39.3516 9.09088C39.0959 9.09088 38.8887 9.29439 38.8887 9.54543C38.8887 9.79647 39.0959 9.99997 39.3516 9.99997Z" fill="#98513B"/>
</g>
<defs>
<clipPath id="clip0_243_173">
<rect width="50" height="50" fill="white"/>
</clipPath>
</defs>
</svg>
